<svg xmlns="http://www.w3.org/2000/svg"><symbol id="cart-empty"><path d="M13.48 14.97a1.5 1.5 0 1 0 1.5 1.5 1.5 1.5 0 0 0-1.5-1.5zm-3.5 1.5a1.5 1.5 0 1 1-1.5-1.5 1.5 1.5 0 0 1 1.5 1.5zM23.26 2h-1.93l-3.47 12H4.62L0 3h2.17l3.78 9h10.42L19.8 0H24"/></symbol><symbol id="cart-cross"><defs><style>.cls-1{fill:#7a1a1d}.cls-2{fill:#fff}</style></defs><g class="cls-2"><path id="rue" d="M13.48 14.97a1.5 1.5 0 1 0 1.5 1.5 1.5 1.5 0 0 0-1.5-1.5zm-3.5 1.5a1.5 1.5 0 1 1-1.5-1.5 1.5 1.5 0 0 1 1.5 1.5z"/><path id="cart" d="M23.26 2h-1.93l-3.47 12H4.62L0 3h2.17l3.78 9h10.42L19.8 0H24"/></g><path id="arrow" d="M14.3 4.5l-1.1-1.1-2.1 2.1-2.12-2.12L7.84 4.5l2.1 2.12L7.9 8.64l1.2 1.12 1.96-2L13.1 9.8l1.1-1.2-1.98-1.98 2.1-2.1z" class="cls-1"/></symbol><symbol id="cut-cash" viewBox="0 0 520.54 478.96"><defs><style>.cls-1{fill:#080409}.cls-2{fill:#fff}.cls-3{fill:#45a6df}</style></defs><g id="cash"><path d="M488.38 239.04l-125.4 47.88-190.04-154.74s-21.42-10.4-18.14 7.72l197 160.72s6.3 5.85 18.65 2 134.15-50.94 134.15-50.94 6.72-13.73-16.22-12.64zm5.77-37.69l-125.4 47.88-190-154.76s-21.43-10.38-18.17 7.74l197 160.73s6.3 5.85 18.65 2S510.4 214 510.4 214s6.7-13.74-16.25-12.65zm17.13-47.91S353.48 25.3 337.8 11.38 298.92.18 298.92.18s-93.94 36.8-117.64 44.66-8.68 25.83-8.68 25.83L350.8 215.6c23.34 15.53 43.63 7.45 43.63 7.45l114.67-43.4c24.4-10.18 2.18-26.2 2.18-26.2zm-111.3 50.17c-21.7-23.52-49.4-10.1-49.4-10.1L213.03 78.68c27.67-8.95 4.26-28.28 4.26-28.28l69.12-26.34c26.55 21.22 48.05 7.82 48.05 7.82l140.07 114.2c-34.67 9.53-4.37 29-4.37 29zM305.04 79.18s55.13-17.67 95.12 22.72c0 0 24.72 32.48-21.1 45.46s-84.77-14.83-84.77-14.83-15.33-10.78-15.17-24.46 3.54-18.58 25.9-28.9z" class="cls-1"/><path d="M360.56 113.93a40.84 40.84 0 0 0-7.28-12.82c-5.32-6.36-10.66-8.42-13.75-5.83-3.64 3-.37 9.83 2.83 17.06 3.44 7.8 6.65 16.08 1.08 20.74s-14.1 1.23-21.56-6.75l-5.2 4.36-4.44-5.3 5.27-4.4a49.32 49.32 0 0 1-6.83-12.4l4.4-3.68c1.15 4.77 4.4 10.92 8.64 16 5.33 6.37 10.65 8.83 14.25 5.82s.12-10.14-3.3-17.83-6.25-15.5-.83-20c5.57-4.67 14.26-.86 21.6 7.1l5.26-4.4 4.42 5.28-5.36 4.5a43.65 43.65 0 0 1 5.12 9z" class="cls-2"/></g><path id="tij" d="M204.3 363.53c-3.77-1.85-6.62-8.9-6.62-8.9l1.78-47.65 115.15-30.8-49.7-38.77-49.72 12.93 5.92-165.28c-47.6-.73-53.23 45.32-53.23 45.32L164 278.57l-42.2 11.9c-11.77 3.75-19-9-19-9-16-21.94-47.23-19.7-47.23-19.7s-33.78 1.68-50.22 36 10 64.5 10 64.5 9.9 12.3 33.9 17.4 40.46-5.4 53.42-16.4 15.65-32.68 17.17-36.54 6.9-7.92 6.9-7.92l42-10.9s.2 44.94-2.3 51.72-26.64 14.56-26.64 14.56-32.35 35.93-11.5 72 57.1 32.68 57.1 32.68c41.68-7.84 51-35.1 51-35.1 16.27-65.42-28.3-78.38-32.1-80.23zM55.9 344.96a24.34 24.34 0 1 1 26.44-17.16 24.34 24.34 0 0 1-26.44 17.16zm126.74-71.6a12.18 12.18 0 1 1 9.38 14.46 12.18 12.18 0 0 1-9.38-14.45zm-4.92 168.3a24.34 24.34 0 1 1 26.44-17.16 24.34 24.34 0 0 1-26.44 17.16z" class="cls-3"/></symbol><symbol id="no-clean"><path fill="#45a6df" d="M254.03 142.2c.4-2.96 1.37-4.07 4.55-3.64q63.7 8.64 127.42 17c4.4.58 3.87 3.14 3.47 6.12q-5 37.05-9.92 74.1c-2.27 17-4.47 34-6.92 51-.26 1.77-1.2 8.53-1.2 8.53l-.68 5-1 7.88S284.6 296.55 249 291.84c-1.66-.23-11.7-1.37-14.5-1.74m71.53-23.8c28.83 3.95 54.88-15.6 58.83-44.14a52.12 52.12 0 0 0-44.2-58.94c-28.18-4.08-55.08 16.12-59 44.3a52.12 52.12 0 0 0 44.37 58.8zm-50.58-132.5c1.58-5.25 2.82-10.38 4.72-15.25.9-2.3 2.9-3.87 6.2-2.75 2 .67 4.47-.46 6.65-.17q55.4 7.3 110.8 14.78c1.25.18 2.8.1 3.65.82 1.2 1 2.9 3.5 2.58 3.9-3.13 3.88-1.8 8.3-2.2 12.55-.27 2.7-1.92 4.2-5.3 3.75q-61.74-8.42-123.5-16.6a28 28 0 0 1-3.6-1.02zm38.64 0c6.43.86 12.9 1.6 19.3 2.63 3.37.53 4.5-.8 4.9-4s.18-5.17-3.6-5.64q-19.1-2.35-38.2-5.08c-3.5-.5-4.83.84-5.28 4.22s.45 5 4 5.4c6.3.66 12.58 1.63 18.87 2.47zm60.2-2.27c-2.1 2.34-4.1 3.6-4.25 5-.13 1.25 1.86 3.88 2.83 3.84 1.56-.07 3.92-1.57 4.32-2.94s-1.43-3.08-2.9-5.88zm10.1 12.42c2.16-2.44 4.15-3.7 4.33-5.18.14-1.2-1.78-3.58-3-3.74s-3.85 1.5-4.06 2.7c-.26 1.45 1.32 3.25 2.73 6.22zm-21.68-13.83c-2 2.12-4.14 3.37-4.1 4.53.08 1.53 1.84 3 2.87 4.5 1.4-1.17 3.48-2.1 4-3.58.32-1.1-1.4-2.87-2.78-5.45zm-77.06 78.38a57.75 57.75 0 0 1 .94-6.6c.36-1.46 1.04-3.7 2.06-4 5.05-1.52 6.42-6.25 9.15-9.73 11.53-14.67 30.67-21.3 47.45-16.33 18.35 5.4 30.7 20.7 32.35 39.86 2.12 24.2-17.42 46.5-41.72 47.6a44.7 44.7 0 0 1-45.7-33.4c-.27-1.05-.34-2.65-1.04-3.05-6.35-3.6-4.1-9.16-3.5-14.36zm50-32.8c-13.2-1.17-26.07 4.73-35.18 18.3-1.05 1.56-.76 4-1 6.06-.9 6.67-1.75 13.35-2.62 20-.27 2-1.25 4.3-.72 6.1a38.85 38.85 0 0 0 42.47 27.44c19.8-2.95 33.9-19.33 33.75-39.18-.2-19.42-14.5-35.7-36.75-38.72zM283 231.75c7.43 3.27 14.63 7.32 22.35 9.5a26.6 26.6 0 0 0 15.16-.78c11.67-4.1 14.1-16.92 6.1-26.3a38.68 38.68 0 0 1-7.42-12.83c-1.6-5 1.94-10.37 6.53-12.44a11.65 11.65 0 0 1 13.5 2.82c9.44 10.84 11.36 23.2 6.2 36.4-5.07 13-15.24 20.23-28.94 21.43-14.13 1.24-25.2-4.76-32.8-16.85a5.3 5.3 0 0 1-.47-1.32c-.06-.1.08-.25-.2.37zm25.47 143.15c-5.48 2.7-10.8 6-16.5 8a88.92 88.92 0 0 1-18.73 4.6c-6.1.77-11.72-1.6-16.54-5.66-7.18-6.06-8-6-15.64-.57-9.9 7.07-19.84 14.06-29.66 21.24-2.63 1.94-4.57 2.3-7.5.23-6.3-4.47-13.35-4.8-20.4-1.83-2.72 1.14-4.38 1.06-6.25-1.56q-45.18-63.56-90.52-127a14.34 14.34 0 0 1-.9-1.92c2.77-.1 5.18-.24 7.6-.25 42.57-.24 82.06 9.8 116.82 35.35a169.93 169.93 0 0 1 51.47 60.7c1.67 3.3.92 7.7 5.82 9.27a22.94 22.94 0 0 0 17-1c6.78-3.1 13.27-6.87 19.8-10.52 2.65-1.48 5.44-3.85 8-1.07 1.6 1.74 1.77 4.8 2.58 7.27zm-113.44-12c3 3.22 5.52 6.3 8.42 9s6.7 4.06 10.44 1.48a136.45 136.45 0 0 0 14.28-10.83c6.64-6 6.84-11 .53-17.48-8.52-8.8-17.15-17.58-26.37-25.65-10.64-9.3-23-15.17-37.68-14.24-5.15.33-7 2.5-5.6 7.45a58.06 58.06 0 0 0 4.77 10.92c1.5 2.85 3.94 5.06 1.9 9-.74 1.46.5 4.54 1.67 6.3 4.8 7.18 9.94 14.15 15 21.18 3.95 5.52 6.42 6.1 12.63 2.9zM67.87 270.2a31.88 31.88 0 0 0 4.88.06c3.72-.5 6.38.9 8.52 3.9q44.8 62.82 89.6 125.6a24.18 24.18 0 0 1 1.73 3.42c-7.23 3.36-11.75 2.34-15.86-3.42Q112.6 338 68.6 276.2a31.2 31.2 0 0 1-2.33-4.84zm101.78 6.74c4.3-4.88 8.86-5.7 14.83-2.92s8.23 6.65 7.4 12.64a31.1 31.1 0 0 1-3.27-1.05c-6.3-2.84-12.56-5.73-18.95-8.66zm8.61 70.61c-2.6-3.65-5.53-7.13-7.65-11-.78-1.46.34-4 .62-6 0-.12.25-.2.38-.3 7.68-6.58 8.6-6.47 14.46 1.72 4.06 5.68 8 11.44 12.2 17 2.26 3 2.16 5-1.06 7.4-8.34 6.06-8.25 6.18-14.3-2.3z"/><path fill="#333" d="M256 0C114.56 0 0 114.56 0 256s114.56 256 256 256 256-114.56 256-256S397.44 0 256 0zm0 460.8c-113.15 0-204.8-91.65-204.8-204.8a204 204 0 0 1 43.14-125.45l287.1 287.1A204 204 0 0 1 256 460.8zm161.66-79.36L130.6 94.34A204 204 0 0 1 256 51.2c113.15 0 204.8 91.65 204.8 204.8a204 204 0 0 1-43.14 125.44z"/></symbol><symbol id="phone"><path d="M91.8 198.9c35.7 71.4 96.9 130.05 168.3 168.3l56.1-56.1c7.65-7.65 17.85-10.2 25.5-5.1 28.05 10.2 58.65 15.3 91.8 15.3 15.3 0 25.5 10.2 25.5 25.5v86.7c0 15.3-10.2 25.5-25.5 25.5C193.8 459 0 265.2 0 25.5 0 10.2 10.2 0 25.5 0h89.25c15.3 0 25.5 10.2 25.5 25.5 0 30.6 5.1 61.2 15.3 91.8 2.55 7.65 0 17.85-5.1 25.5L91.8 198.9z"/></symbol><symbol id="no"><path fill="none" d="M0 0h48v48H0z"/><path d="M24 4C12.95 4 4 12.95 4 24s8.95 20 20 20 20-8.95 20-20S35.05 4 24 4zm0 36c-8.84 0-16-7.16-16-16 0-3.7 1.27-7.1 3.37-9.8L33.8 36.63C31.1 38.73 27.7 40 24 40zm12.63-6.2L14.2 11.37C16.9 9.27 20.3 8 24 8c8.84 0 16 7.16 16 16 0 3.7-1.27 7.1-3.37 9.8z"/></symbol><symbol id="cart-solo"><path d="M10 19.5a1.5 1.5 0 1 1-3 0 1.5 1.5 0 0 1 3 0zm3.5-1.5a1.5 1.5 0 1 0 0 3 1.5 1.5 0 0 0 0-3zm1.34-5l1.97-7H0l2.94 7h11.9zM19.8 3l-3.43 12H3.77l.84 2h13.26l3.48-12h1.93L24 3h-4.2z"/></symbol><symbol id="cart-arrow"><defs><style>.cls-1{fill:#238b42}</style></defs><path id="rue" d="M13.48 14.97a1.5 1.5 0 1 0 1.5 1.5 1.5 1.5 0 0 0-1.5-1.5zm-3.5 1.5a1.5 1.5 0 1 1-1.5-1.5 1.5 1.5 0 0 1 1.5 1.5z"/><path id="cart" d="M23.26 2h-1.93l-3.47 12H4.62L0 3h2.17l3.78 9h10.42L19.8 0H24"/><path id="arrow" d="M9.7 6.15L7.4 3.97 5.98 5.4l3.75 3.57 6.56-6.6-1.44-1.4L9.7 6.15z" class="cls-1"/></symbol><symbol id="armario" viewBox="0 0 203.85 278.14"><path d="M176.52 259.56H27.68c-.13 2.82.14 5.57-.45 8.12a13.64 13.64 0 0 1-16.74 10 13.92 13.92 0 0 1-10-17c.3-1.33-.1-2.86-.2-4.3s-.24-2.68-.24-4Q0 133.88 0 15.46c0-4.7 1.53-6.2 6.24-6.2H27.8c0-1.62-.06-3.12 0-4.6a4.62 4.62 0 0 1 9.24-.1c.1 1.43 0 2.88 0 4.5h9.17c.48-3.6-1.15-9 4.85-8.9 5.75.08 4.24 5.26 4.65 9h69.36V4.98c.14-2.98 2-4.98 4.62-4.98s4.53 1.92 4.66 4.85c.07 1.34 0 2.68 0 4.4h63.16c4.94 0 6.34 1.42 6.34 6.4q0 118.84-.1 237.7c0 3.52-.28 7 0 10.6.4 5.7-2.5 10.06-7.6 12.6a13 13 0 0 1-14.46-1.3c-4.55-3.45-6.3-8.14-5.32-13.8.08-.47.17-.94.24-1.4a2.36 2.36 0 0 0-.08-.5zm-9.74-117.88c0 5.17-1.36 6.56-6.44 6.56H99c-4.87 0-6.3-1.46-6.3-6.42V88H80.1c-4.38 0-5.93-1.55-5.93-5.92V47.92c0-4.78 1.44-6.24 6.18-6.24h44.6V18.75h-69.2v18.3h3.56c3.94.07 5.58 1.73 5.58 5.72v86.85a23.2 23.2 0 0 1-20.24 23.1c-4.5.64-5.94-.12-7.65-3.62-3.8 1.24-7.46 2.8-11.27 3.57-5.1 1-7.17-1-7.17-6.2V42.82c0-4.1 1.67-5.75 5.8-5.77h3.33V18.7H9.47v203.43h14.37a14.38 14.38 0 0 1 2.75-13.68c-4.6-6.83-4.6-11.8 0-18.5-.45-.7-.85-1.23-1.2-1.8-2.8-4.55-3.13-9.28-.6-14a13 13 0 0 1 12-7.33q23.45-.13 46.9 0a13.63 13.63 0 0 1 13.18 10.6c1.24 4.77-.37 8.86-3 12.6 4.58 6.63 4.58 10.52.08 18.67a14.08 14.08 0 0 1 2.68 13.56h10.6a14.5 14.5 0 0 1 2.8-13.8c-4.6-6.65-4.6-10.9-.1-18.66-.4-.6-.85-1.22-1.24-1.87a13.75 13.75 0 0 1 11.5-21.1c15.63-.14 31.27-.1 46.9 0a13.65 13.65 0 0 1 13.2 10.6c1.23 4.77-.38 8.86-3 12.6 4.7 6.3 4.48 12.44-.06 18.57 3.44 4 4.2 8.6 2.86 13.63h14.33V18.77h-59.9V41.7h44.73c4.5 0 6.06 1.53 6.06 6.07v34.17c0 4.5-1.57 6.08-6.07 6.08h-12.47m-9.27 50.82V84.85c0-4.56 1.54-6.1 6-6.1h12.28V51.12h-27.4c0 .72-.1 1.28-.1 1.84-.07 4.82.33 9.7-.26 14.45a18.33 18.33 0 0 1-19.8 15.96 18.6 18.6 0 0 1-17-18.66V51.16h-27.6v27.6h11.8c5.13 0 6.53 1.4 6.53 6.5v53.61zM9.4 250h184.95v-18.23H9.4zM28 142.4c5.53-1.6 9.1-6.77 9.1-13.07v-80.1c0-.9-.08-1.84-.13-2.77H28zm18.52.15c5.9-2.18 9.12-7 9.12-13.42v-80.5c0-.72-.13-1.45-.2-2.16h-8.97zM60.38 176H38.13c-3.58 0-5.73 1.8-5.68 4.7s2.1 4.54 5.53 4.54h44.5c3.46 0 5.48-1.72 5.53-4.55s-2.06-4.7-5.65-4.7zm83.53 0c-7.5 0-15-.06-22.52.05-1.35 0-3.24.36-3.9 1.27a7.06 7.06 0 0 0-1.2 4.9c.45 2.34 2.6 3.05 5 3.05h44.5c3.6 0 5.74-1.8 5.68-4.7s-2.14-4.54-5.8-4.55q-10.9-.02-21.74-.02zm-83.36 18.57H38.3c-3.7 0-5.8 1.65-5.84 4.53s2.08 4.7 5.67 4.72h44.2c3.62 0 5.74-1.78 5.7-4.68s-2.12-4.56-5.8-4.57c-7.22-.02-14.46 0-21.7 0zm83.17 9.26h22.26c3.37 0 5.46-1.83 5.46-4.63s-2.05-4.6-5.46-4.6h-44.5c-3.58 0-5.7 1.86-5.6 4.78s2.16 4.46 5.6 4.47zm-83.77 18.53h22.54c3.43 0 5.5-1.73 5.55-4.52s-2.06-4.72-5.63-4.73H38.14c-3.62 0-5.73 1.8-5.7 4.7s2.1 4.57 5.8 4.6zm83.7-9.26h-22c-3.68 0-5.77 1.66-5.8 4.56s2.08 4.7 5.67 4.7h44.2c3.6 0 5.72-1.8 5.67-4.7s-2.16-4.55-5.82-4.56zm-23.16-162v2.47c0 4-.15 8.1.1 12.15a9.1 9.1 0 0 0 8.78 8.4c4.7.18 9.15-3.23 9.5-7.92.34-5 .07-10 .07-15.1zm-83.3-14.27h9V18.7h-9zm-18.64 227.3a4.62 4.62 0 1 0-4.6 4.54 4.68 4.68 0 0 0 4.6-4.55zm176 0a4.62 4.62 0 1 0-4.6 4.56 4.7 4.7 0 0 0 4.64-4.6z"/><path fill="#4599cb" stroke="#4599cb" stroke-miterlimit="10" stroke-width=".5" d="M157.5 138.84h-55.57V85.27c0-5.1-1.4-6.5-6.52-6.5H83.64v-27.6h27.57v13.54a18.6 18.6 0 0 0 17 18.65A18.33 18.33 0 0 0 148 67.4c.6-4.74.2-9.62.25-14.44 0-.56.06-1.12.1-1.84h27.46v27.63h-12.24c-4.52 0-6 1.54-6 6.1v50.93z"/><path fill="#fff" d="M9.4 250v-18.23h184.95V250z"/><path fill="#449140" stroke="#449140" stroke-miterlimit="10" stroke-width=".5" d="M28 142.4V46.47h9c0 .93.14 1.86.14 2.78v80.1c-.08 6.3-3.66 11.47-9.14 13.07z"/><path fill="#ba4e46" stroke="#ba4e46" stroke-miterlimit="10" stroke-width=".5" d="M46.47 142.55V46.47h8.92c.05.7.2 1.44.2 2.17v80.5c0 6.4-3.25 11.23-9.14 13.4z"/><path fill="#8b5690" stroke="#8b5690" stroke-miterlimit="10" stroke-width=".5" d="M60.38 176h22c3.6 0 5.72 1.8 5.67 4.7s-2.07 4.54-5.53 4.54h-44.5c-3.44 0-5.5-1.73-5.53-4.54s2.1-4.7 5.66-4.7h22.2z"/><path fill="#969696" stroke="#969696" stroke-miterlimit="10" stroke-width=".5" d="M143.9 176h21.7c3.66 0 5.74 1.67 5.8 4.56s-2.08 4.68-5.67 4.7h-44.5c-2.36 0-4.5-.72-5-3.07a7.06 7.06 0 0 1 1.2-4.9c.65-.9 2.54-1.26 3.9-1.28 7.55-.03 15.07-.03 22.58-.03z"/><path fill="#fff" d="M60.53 194.57h21.68c3.7 0 5.8 1.67 5.83 4.57s-2.08 4.68-5.7 4.68h-44.2c-3.6 0-5.7-1.8-5.67-4.72s2.14-4.53 5.83-4.53h22.24z"/><path fill="#9f1420" stroke="#9f1420" stroke-miterlimit="10" stroke-width=".5" d="M143.7 203.83h-22.25c-3.45 0-5.5-1.68-5.6-4.47s2-4.78 5.6-4.78h44.5c3.4 0 5.45 1.8 5.46 4.6s-2.07 4.62-5.44 4.63c-7.4.06-14.83.04-22.25.04z"/><path fill="#3e4b50" stroke="#3e4b50" stroke-miterlimit="10" stroke-width=".5" d="M59.92 222.36H38.24c-3.68 0-5.76-1.7-5.8-4.6s2.1-4.66 5.7-4.66h44.23c3.57 0 5.7 1.82 5.64 4.73s-2.1 4.5-5.53 4.52H59.94z"/><path fill="#e2c135" stroke="#e2c135" stroke-miterlimit="10" stroke-width=".5" d="M143.62 213.1h22c3.66 0 5.78 1.7 5.82 4.55s-2.07 4.7-5.67 4.7h-44.25c-3.6 0-5.73-1.8-5.68-4.7s2.13-4.54 5.8-4.55z"/><path fill="#fff" d="M18.53 264.12a4.62 4.62 0 1 1-4.53-4.7 4.64 4.64 0 0 1 4.53 4.7zm176.04-.02a4.62 4.62 0 1 1-4.5-4.67 4.67 4.67 0 0 1 4.5 4.68z"/></symbol><symbol id="loading" viewBox="0 0 307.99 307.64"><path fill="#c64d47" stroke="#c64d47" stroke-miterlimit="10" d="M201.88 8.3c21.75 6.64 40.45 18.48 57.07 33.72 24.64 22.6 39.14 50.9 45.88 83.4a15.8 15.8 0 0 1 .15 2.47c-1.1 6.27-5.8 10.34-9.46 15-9.8 12.33-21.1 23-34.75 31.06-18.2 10.78-37.54 12.78-57.7 7.53-16-4.2-30.3-11.9-43.27-22.12-2-1.54-4-3.08-5-5.44a1.92 1.92 0 0 1 .27-1.5c10.34-5 20.7-10 29.64-17.33 17.64-14.45 30.9-31.83 34.4-55 2.76-18.1-.88-35.45-8.33-52A164.3 164.3 0 0 0 203.05 13c-.87-1.45-1.94-2.85-1.17-4.67z"/><path fill="#3283c3" stroke="#3283c3" stroke-miterlimit="10" d="M253.83 269.83c-22.6 19.34-48.16 32.08-78 35.9a157.12 157.12 0 0 1-65.06-4.83c-1.6-.47-3.12-1.1-4.68-1.66-4.36-3.33-6.84-8.1-9.38-12.72-10.1-18.4-15.43-37.9-12.25-59 3.27-21.76 14.85-38.88 31-53.2 8.8-7.8 18.9-13.6 29.54-18.45 2.7-1.22 5.33-2.83 8.48-2.65a1.75 1.75 0 0 1 1.12 1.1c1.3 3.38-.4 6.55-.7 9.8a84.7 84.7 0 0 0-.06 20 135.75 135.75 0 0 0 8.76 33.7c9.67 23.18 27.35 37.06 50.8 44.4 11.66 3.64 23.65 5.32 35.78 6.23 1.7.1 3.43-.12 4.65 1.38z"/><path fill="#449a41" stroke="#449a41" stroke-miterlimit="10" d="M154.25 153.5c-21.2 7.57-39.2 19.56-52.73 37.7-20.1 27-21.2 55.9-8 86.08 3.4 7.8 8 14.86 12.6 22-41.5-14.34-72.16-41-90.93-80.85-5.75-12.2-10.4-24.83-12.1-38.34.5-1.4.5-2.9 1.35-4.23 11.3-17.63 25.14-32.72 43.9-42.6a74.08 74.08 0 0 1 48.87-7.36c19.37 3.48 36.7 11.53 52.9 22.4 1.94 1.23 4.03 2.44 4.13 5.2z"/><path fill="#eeca2b" stroke="#eeca2b" stroke-miterlimit="10" d="M154.25 153.5c-9.46-8.64-20.7-14.34-32.4-19.1-24.83-10.1-49.78-12.85-74.42.7-15.3 8.43-27.2 20.64-37.37 34.64-2.42 3.36-4.67 6.84-7 10.26-3.3-12.76-2.9-25.8-1.83-38.68 3.35-40.65 20.8-74.5 50.7-102 1-.9 2.1-1.6 3.15-2.4 9.78-1.56 19.23.67 28.64 2.7 19 4.1 36.63 11.13 50.33 25.7a71.7 71.7 0 0 1 15.24 25c6.76 18.73 9.65 38 7.34 57.9a9.84 9.84 0 0 1-1.4 4.73 2 2 0 0 0-.08.65l-.5.2a.87.87 0 0 0-.4-.3z"/><path fill="#db962f" stroke="#db962f" stroke-miterlimit="10" d="M155.27 152.94c.58-7.6 1.24-15.22.73-22.83-1.15-17.3-4.27-34.2-12.66-49.67-9.52-17.58-24.67-28.3-43.15-34.78a135.73 135.73 0 0 0-41.8-7.9c-1.15 0-2.35.14-3.28-.8a147 147 0 0 1 64.74-32.5 150.53 150.53 0 0 1 82 3.9c6.8 12 13.17 24.2 16.5 37.8 7.53 30.7.07 57.15-21.8 79.77-11.7 12.1-25.23 21.5-41.3 27.02z"/><path fill="#935999" stroke="#935999" stroke-miterlimit="10" d="M154.7 153.8a.7.7 0 0 1 .5-.2c21 18.23 44.46 30.18 73.08 29.2 16-.56 29.48-7.4 41.92-16.75 14-10.52 25.08-23.7 34.78-38.16 3.2 12.42 2.76 25.1 1.84 37.67-2.93 40.17-19.83 73.72-49.1 101.17-1.2 1.13-2.6 2.06-3.9 3.08a152.4 152.4 0 0 1-47.36-8.67c-27.78-10.05-42.9-30.8-50.3-58.27-1.6-5.93-3.1-11.92-3.1-18.14v-21a31.36 31.36 0 0 1 1.63-9.94z"/><path fill="#935999" d="M153.06 163.74a46.34 46.34 0 0 1 0 21 52 52 0 0 1 0-21z"/></symbol><symbol id="user"><style>.st0{fill:#fff}</style><path d="M219.3 219.3c30.3 0 56.1-10.7 77.5-32.1 21.4-21.4 32.1-47.2 32.1-77.5 0-30.3-10.7-56.1-32.1-77.5C275.4 10.7 249.5 0 219.3 0s-56.1 10.7-77.5 32.1c-21.4 21.4-32.1 47.3-32.1 77.5 0 30.3 10.7 56.1 32.1 77.5 21.4 21.5 47.2 32.2 77.5 32.2zm200 115.7c-.7-9.6-2-20-4-31.1-2-11.1-4.5-21.5-7.6-31-3-9.5-7.1-18.8-12.3-27.8-5.1-9-11-16.7-17.7-23.1-6.7-6.4-14.8-11.5-24.4-15.3-9.6-3.8-20.2-5.7-31.8-5.7-1.7 0-5.7 2-12 6.1s-13.4 8.7-21.3 13.7-18.2 9.6-30.8 13.7c-12.7 4.1-25.4 6.1-38.1 6.1-12.8 0-25.5-2-38.1-6.1-12.7-4.1-22.9-8.7-30.8-13.7-7.9-5-15-9.6-21.3-13.7-6.3-4.1-10.3-6.1-12-6.1-11.6 0-22.2 1.9-31.8 5.7-9.6 3.8-17.7 8.9-24.4 15.3-6.7 6.4-12.6 14.1-17.7 23.1-5.1 9-9.2 18.3-12.3 27.8-3 9.5-5.6 19.8-7.6 31-2 11.1-3.3 21.5-4 31.1-.7 9.6-1 19.5-1 29.6 0 22.8 6.9 40.9 20.8 54.1 13.9 13.2 32.4 19.8 55.4 19.8H344c23 0 41.5-6.6 55.4-19.8 13.9-13.2 20.8-31.3 20.8-54.1.1-10.1-.3-19.9-.9-29.6z" class="st0"/></symbol></svg>