<svg xmlns="http://www.w3.org/2000/svg" width="26.5" height="36.16"><title>Recurso 2OnlyUP</title><path d="M23 33.74H3.6a6.05 6.05 0 0 1-.06 1.06 1.78 1.78 0 0 1-2.18 1.3 1.82 1.82 0 0 1-1.3-2.22 2.13 2.13 0 0 0 0-.56c0-.17 0-.35 0-.52V2C0 1.4.2 1.2.8 1.2h2.82c0-.2 0-.4 0-.6a.6.6 0 0 1 .6-.6.6.6 0 0 1 .6.6c0 .18 0 .37 0 .58H6C6.07.7 5.86 0 6.64 0s.55.68.6 1.16h9V.64a.6.6 0 1 1 1.2 0v.56h8.22c.64 0 .82.2.82.83q0 15.45 0 30.9c0 .47 0 .92 0 1.4a1.6 1.6 0 0 1-1 1.62 1.68 1.68 0 0 1-1.88-.17 1.73 1.73 0 0 1-.7-1.8 1.16 1.16 0 0 0 0-.17.35.35 0 0 1 .1-.06zm-19.5-9a1.5 1.5 0 0 1-.14-.23 1.7 1.7 0 0 1-.08-1.8 1.68 1.68 0 0 1 1.55-.96c2 0 4.07 0 6.1 0a1.75 1.75 0 0 1 1.7 1.37 1.86 1.86 0 0 1-.38 1.65 1.87 1.87 0 0 1 0 2.43 1.83 1.83 0 0 1 .35 1.76h1.38a1.9 1.9 0 0 1 .36-1.8 1.86 1.86 0 0 1 0-2.4l-.16-.26a1.78 1.78 0 0 1 1.5-2.74c2 0 4.06 0 6.1 0a1.77 1.77 0 0 1 1.7 1.37 1.9 1.9 0 0 1-.48 1.6 1.84 1.84 0 0 1 0 2.42 1.86 1.86 0 0 1 .37 1.77h1.86V2.43H17.5v3h5.8c.6 0 .8.2.8.8v4.43c0 .6-.2.8-.8.8h-1.62v7c0 .66-.17.84-.83.84h-8c-.64 0-.82-.18-.82-.82v-7H10.4c-.56 0-.76-.2-.76-.77V6.24c0-.62.2-.8.8-.8h5.8v-3h-9v2.4c.17 0 .3 0 .46 0 .5 0 .72.2.72.73 0 3.76 0 7.53 0 11.3a3 3 0 0 1-2.63 3c-.6.07-.78 0-1-.5a13.9 13.9 0 0 1-1.48.48c-.66.13-.93-.13-.93-.8V5.56c0-.54.2-.75.74-.75h.46v-2.4H1.23V28.9H3.1a1.88 1.88 0 0 1 .36-1.78 1.84 1.84 0 0 1 0-2.4zm17-6.64V11c0-.6.2-.8.8-.8h1.6V6.66h-3.6c0 .1 0 .16 0 .24a14.56 14.56 0 0 1 0 1.86 2.38 2.38 0 0 1-2.58 2.08 2.42 2.42 0 0 1-2.2-2.43c0-.57 0-1.16 0-1.75h-3.65v3.6h1.54c.67 0 .85.17.85.83v7zM1.23 32.5h24.05v-2.37h-24zm2.4-14a1.7 1.7 0 0 0 1.2-1.7V6.4c0-.12 0-.24 0-.36h-1.2zm2.42 0a1.74 1.74 0 0 0 1.2-1.74V6.32A2.66 2.66 0 0 0 7.2 6H6zm1.8 4.36c-1 0-1.92 0-2.88 0-.47 0-.75.23-.74.6s.27.6.72.6h5.78c.45 0 .72-.23.72-.6s-.27-.6-.74-.6zm10.87 0c-1 0-1.94 0-2.92 0a.75.75 0 0 0-.5.17.9.9 0 0 0-.16.63c.06.3.33.4.64.4h5.8c.45 0 .73-.23.72-.6s-.27-.6-.75-.6c-.94.02-1.88.03-2.82.03zM7.88 25.3H5c-.48 0-.76.2-.76.6s.27.6.74.6h5.72c.47 0 .75-.23.74-.6s-.27-.6-.75-.6c-.95 0-1.9 0-2.83 0zm10.8 1.2h2.9c.44 0 .7-.24.7-.6s-.25-.6-.7-.6c-1.93 0-3.85 0-5.78 0-.48 0-.75.24-.74.62s.28.58.73.58zM7.8 28.9h2.92c.45 0 .72-.22.72-.58s-.27-.6-.73-.6c-1.9 0-3.82 0-5.74 0-.47 0-.74.2-.74.6s.27.6.75.6zm10.87-1.2h-2.85c-.48 0-.75.22-.76.6s.27.6.74.6h5.75c.46 0 .74-.23.73-.6s-.28-.6-.75-.6zm-3-21.06V7c0 .53 0 1.06 0 1.58a1.18 1.18 0 0 0 1.15 1.1 1.16 1.16 0 0 0 1.23-1c.05-.65 0-1.3 0-2zM4.83 4.8H6V2.42H4.83zM2.4 34.33a.6.6 0 1 0-1.2 0 .6.6 0 0 0 .6.6.6.6 0 0 0 .6-.6zm22.9 0a.6.6 0 1 0-.6.6.62.62 0 0 0 .6-.6z"/><path fill="#45a6df" stroke="#45a6df" stroke-width=".5" stroke-miterlimit="10" d="M20.48 18.05h-7.23v-7c0-.66-.18-.84-.84-.84h-1.53V6.66h3.6c0 .6 0 1.18 0 1.76a2.42 2.42 0 0 0 2.2 2.44 2.38 2.38 0 0 0 2.57-2.08 14.56 14.56 0 0 0 0-1.87c0-.1 0-.16 0-.25h3.57v3.6h-1.6c-.57 0-.77.2-.77.78v7z"/><path fill="#fff" d="M1.22 32.5v-2.37h24.05v2.37z"/><path fill="#449941" stroke="#449941" stroke-width=".5" stroke-miterlimit="10" d="M3.63 18.5V6H4.8c0 .12 0 .24 0 .36V16.8a1.7 1.7 0 0 1-1.17 1.7z"/><path fill="#c54d47" stroke="#c54d47" stroke-width=".5" stroke-miterlimit="10" d="M6 18.53V6h1.2a2.66 2.66 0 0 1 0 .28v10.5A1.74 1.74 0 0 1 6 18.54z"/><path fill="#925998" stroke="#925998" stroke-width=".5" stroke-miterlimit="10" d="M7.85 22.9h2.85c.47 0 .75.22.74.6s-.27.6-.72.6H4.94c-.45 0-.72-.24-.72-.6s.27-.6.74-.6c.96-.02 1.93 0 2.9 0z"/><path fill="#969696" stroke="#969696" stroke-width=".5" stroke-miterlimit="10" d="M18.7 22.9c.95 0 1.9 0 2.83 0 .48 0 .75.2.75.58s-.27.6-.73.6h-5.8c-.3 0-.57-.08-.63-.4a.9.9 0 0 1 .15-.62.75.75 0 0 1 .5-.17c1-.02 1.96 0 2.94 0z"/><path fill="#fff" d="M7.87 25.3c.94 0 1.88 0 2.82 0 .47 0 .74.2.74.6s-.27.6-.74.6H5c-.47 0-.75-.24-.74-.6s.28-.6.76-.6z"/><path fill="#a8001c" stroke="#a8001c" stroke-width=".5" stroke-miterlimit="10" d="M18.68 26.5h-2.9c-.44 0-.7-.22-.72-.58s.26-.62.73-.62c1.92 0 3.84 0 5.77 0 .45 0 .7.23.7.6s-.26.6-.7.6z"/><path fill="#3e4b51" stroke="#3e4b51" stroke-width=".5" stroke-miterlimit="10" d="M7.8 28.9H5c-.48 0-.75-.2-.75-.6s.27-.6.74-.6c1.9 0 3.82 0 5.74 0 .46 0 .74.24.73.62s-.27.6-.72.6z"/><path fill="#edc92b" stroke="#edc92b" stroke-width=".5" stroke-miterlimit="10" d="M18.67 27.7h2.86c.47 0 .75.22.75.6s-.27.6-.73.6H15.8c-.47 0-.75-.23-.74-.6s.28-.6.76-.6z"/><path fill="#fff" d="M2.4 34.34a.6.6 0 0 1-.6.6.6.6 0 1 1 0-1.2.6.6 0 0 1 .6.6zM25.3 34.34a.6.6 0 1 1-.6-.6.6.6 0 0 1 .6.6z"/></svg>