<svg xmlns="http://www.w3.org/2000/svg" width="415.9" height="409.86" viewBox="0 0 415.9 409.86"><title>Recurso 1cloth</title><path d="M410.24,354.35l-81-79.8a19.61,19.61,0,0,0-13.81-5.61H302.2a164.11,164.11,0,0,0,35.74-102.45C337.94,74.52,262.31,0,169,0S0,74.52,0,166.49,75.63,333,169,333a169.73,169.73,0,0,0,104-35.22v13.05a19,19,0,0,0,5.69,13.6l81,79.81a19.63,19.63,0,0,0,27.54,0l23-22.66A19.09,19.09,0,0,0,410.24,354.35ZM169,268.94c-57.43,0-104-45.78-104-102.45S111.46,64,169,64s104,45.79,104,102.46S226.49,268.94,169,268.94Z" fill="#fff"/></svg>