<svg id="Logo" xmlns="http://www.w3.org/2000/svg" viewBox="0 0 395.78 221.51"><defs><style>.cls-1,.cls-2{fill:#fff;}.cls-2{font-size:94px;font-family:MS-UIGothic, MS UI Gothic;}</style></defs><title>LogoV1-white</title><rect id="Black" width="212" height="212"/><path id="P" class="cls-1" d="M62.58,182.56H76.87v74.55a19.34,19.34,0,0,0,5.59,14.29q6.83,6.84,19.88,6.83t19.88-6.83a19.34,19.34,0,0,0,5.59-14.29V182.56H142.1v75.17q0,13.66-8.7,22.36Q123.45,290,102.34,290t-31.06-9.94q-8.72-8.68-8.7-22.36Zm18-8.08V160.81H94.89v13.67Zm29.82,0V160.81h14.29v13.67Z" transform="translate(-48.53 -119.42)"/><path id="U" class="cls-1" d="M165.71,182.56h49.7q13.67,0,22.37,8.69t8.69,24.23q0,15.54-8.07,23.61t-23,8.08H180v41.62H165.71ZM180,194.36v41h32.3q8.7,0,13.67-5,5.59-5.59,5.59-14.91,0-10.54-5-15.53a19.33,19.33,0,0,0-14.29-5.59Z" transform="translate(-48.53 -119.42)"/><text class="cls-2" transform="translate(212.92 208.66)">.com</text></svg>