<svg xmlns="http://www.w3.org/2000/svg" viewBox="0 0 101.69 101.69"><defs><style>.cls-1{fill:#4a98c1;}.cls-2{fill:#fff;}.cls-3{fill:#e0a32d;}</style></defs><title>Recurso 13ldpi</title><g id="Capa_2" data-name="Capa 2"><g id="Argentina"><polygon class="cls-1" points="51.07 0 0 0 0 101.69 51.07 101.69 101.69 101.69 101.69 0 51.07 0"/><path class="cls-2" d="M56.21,30.28H80.05a14.56,14.56,0,0,1,10.72,4.17Q94.94,38.64,95,46.08T91.07,57.4q-3.87,3.87-11,3.87h-17v20H56.21Zm6.85,5.66V55.61h15.5a8.84,8.84,0,0,0,6.55-2.38,9.66,9.66,0,0,0,2.68-7.15q0-5.07-2.38-7.45a9.28,9.28,0,0,0-6.85-2.69Z"/><path class="cls-2" d="M7,30.21h6.85V66a9.31,9.31,0,0,0,2.68,6.86q3.28,3.27,9.54,3.27t9.54-3.27A9.31,9.31,0,0,0,38.31,66V30.21h6.85V66.27A14.53,14.53,0,0,1,41,77q-4.77,4.77-14.9,4.76T11.19,77A14.53,14.53,0,0,1,7,66.27Z"/><rect class="cls-3" x="15.38" y="19.85" width="6.85" height="6.56"/><rect class="cls-3" x="29.69" y="19.85" width="6.85" height="6.56"/></g></g></svg>