<svg xmlns="http://www.w3.org/2000/svg" viewBox="0 0 113.65 113.65"><defs><style>.cls-1{fill:#fff;}.cls-2{fill:#269343;}.cls-3{fill:#f4d72a;}.cls-4{fill:#002171;}</style></defs><title>Recurso 8ldpi</title><g id="Capa_2" data-name="Capa 2"><g id="Brazil"><rect class="cls-1" x="17.19" y="22.19" width="7.66" height="7.33"/><rect class="cls-1" x="33.18" y="22.19" width="7.66" height="7.33"/><rect class="cls-2" width="57.08" height="113.65"/><rect class="cls-3" x="57.08" width="56.57" height="113.65"/><path class="cls-3" d="M7.53,33.85h7.66v40a10.37,10.37,0,0,0,3,7.66q3.66,3.68,10.66,3.67t10.66-3.67a10.36,10.36,0,0,0,3-7.66v-40h7.67V74.14a16.21,16.21,0,0,1-4.67,12q-5.32,5.34-16.65,5.33T12.2,86.13a16.21,16.21,0,0,1-4.67-12Zm9.66-4.33V22.19h7.66v7.33Zm16,0V22.19h7.66v7.33Z"/><path class="cls-4" d="M62.82,33.85H89.47a16.25,16.25,0,0,1,12,4.66q4.65,4.66,4.66,13t-4.33,12.65q-4.33,4.34-12.32,4.33h-19V90.8H62.82Zm7.66,6.32v22H87.8a9.9,9.9,0,0,0,7.33-2.67,10.79,10.79,0,0,0,3-8c0-3.78-.89-6.55-2.66-8.33a10.37,10.37,0,0,0-7.66-3Z"/></g></g></svg>