<svg xmlns="http://www.w3.org/2000/svg" viewBox="0 0 115.84 115.84"><defs><style>.cls-1{fill:#c2303a;}.cls-2{fill:#fff;}</style></defs><title>Recurso 14ldpi</title><g id="Capa_2" data-name="Capa 2"><g id="canada"><polygon class="cls-1" points="58.18 0 0 0 0 115.84 58.18 115.84 115.84 115.84 115.84 0 58.18 0"/><path class="cls-2" d="M64,34.5H91.19a16.55,16.55,0,0,1,12.22,4.75q4.75,4.76,4.75,13.24t-4.41,12.9Q99.34,69.8,91.19,69.8H71.84V92.55H64ZM71.84,41v22.4H89.49A10.09,10.09,0,0,0,97,60.64,11,11,0,0,0,100,52.49c0-3.85-.91-6.67-2.72-8.49a10.6,10.6,0,0,0-7.81-3Z"/><path class="cls-2" d="M8,34.42h7.8V75.15A10.56,10.56,0,0,0,18.86,83Q22.6,86.7,29.72,86.7T40.58,83a10.56,10.56,0,0,0,3.06-7.81V34.42h7.81V75.49A16.56,16.56,0,0,1,46.7,87.71q-5.45,5.45-17,5.44t-17-5.44A16.52,16.52,0,0,1,8,75.49Z"/><rect class="cls-2" x="17.52" y="22.62" width="7.81" height="7.47"/><rect class="cls-2" x="33.82" y="22.62" width="7.81" height="7.47"/></g></g></svg>