<svg xmlns="http://www.w3.org/2000/svg" viewBox="0 0 114.85 114.85"><defs><style>.cls-1{fill:#fff;stroke:#201813;stroke-miterlimit:10;}.cls-2{fill:#c12c34;}</style></defs><title>Recurso 11ldpi</title><g id="Capa_2" data-name="Capa 2"><g id="Japon"><polygon class="cls-1" points="57.68 0.5 0.5 0.5 0.5 114.36 57.68 114.36 114.36 114.36 114.36 0.5 57.68 0.5"/><path class="cls-2" d="M8.05,34.41h7.67v40a10.4,10.4,0,0,0,3,7.68q3.68,3.67,10.68,3.67t10.68-3.67a10.4,10.4,0,0,0,3-7.68v-40h7.67V74.78a16.23,16.23,0,0,1-4.67,12q-5.34,5.34-16.68,5.34T12.72,86.79a16.23,16.23,0,0,1-4.67-12Zm9.67-4.34V22.73H25.4v7.34Zm16,0V22.73h7.67v7.34Z"/><path class="cls-2" d="M63.43,34.41H90.12a16.27,16.27,0,0,1,12,4.67q4.67,4.66,4.67,13t-4.34,12.68Q98.14,69.1,90.12,69.1h-19V91.46H63.43Zm7.68,6.34v22H88.46A9.94,9.94,0,0,0,95.8,60.1a10.84,10.84,0,0,0,3-8q0-5.67-2.67-8.34a10.39,10.39,0,0,0-7.67-3Z"/><rect class="cls-2" x="17.72" y="22.73" width="7.67" height="7.34"/><rect class="cls-2" x="33.74" y="22.73" width="7.67" height="7.34"/></g></g></svg>