<svg xmlns="http://www.w3.org/2000/svg" viewBox="0 0 116.45 116.45"><defs><style>.cls-1{fill:#070308;}.cls-2{fill:#02603e;}.cls-3{fill:#c12b33;}.cls-4{fill:#fff;}.cls-5{fill:#e7b83c;}.cls-6{fill:#af681f;}</style></defs><title>Recurso 17ldpi</title><g id="Capa_2" data-name="Capa 2"><g id="Mexico"><path class="cls-1" d="M7.35,34.73h7.9v41.2a10.69,10.69,0,0,0,3.09,7.9q3.78,3.78,11,3.78t11-3.78a10.69,10.69,0,0,0,3.09-7.9V34.73H51.3V76.28a16.76,16.76,0,0,1-4.8,12.36Q41,94.13,29.33,94.13T12.16,88.64A16.73,16.73,0,0,1,7.35,76.28Z"/><rect class="cls-2" width="59.02" height="116.45"/><rect class="cls-3" x="58.48" width="57.97" height="116.45"/><path class="cls-4" d="M64.37,34.68h27.3A16.62,16.62,0,0,1,104,39.46q4.78,4.77,4.78,13.31c0,5.68-1.48,10-4.44,13s-7.16,4.44-12.62,4.44H72.22V93H64.37Zm7.85,6.48V63.69H90A10.16,10.16,0,0,0,97.47,61a11.07,11.07,0,0,0,3.07-8.19c0-3.87-.91-6.71-2.73-8.54A10.67,10.67,0,0,0,90,41.16Z"/><path class="cls-4" d="M8,34.6h7.85V75.55A10.62,10.62,0,0,0,19,83.4q3.75,3.75,10.92,3.75c4.78,0,8.41-1.25,10.92-3.75a10.62,10.62,0,0,0,3.07-7.85V34.6h7.85V75.89a16.62,16.62,0,0,1-4.78,12.28q-5.46,5.47-17.06,5.47T12.82,88.17A16.58,16.58,0,0,1,8,75.89Z"/><rect class="cls-5" x="16.83" y="20.36" width="7.03" height="6.72"/><rect class="cls-6" x="34.64" y="20.36" width="7.03" height="6.72"/></g></g></svg>