<svg xmlns="http://www.w3.org/2000/svg" viewBox="0 0 116.31 116.31"><defs><style>.cls-1{fill:#070308;}.cls-2{fill:#343267;}.cls-3{fill:#b62131;}.cls-4{fill:#fff;}</style></defs><title>Recurso 16ldpi</title><g id="Capa_2" data-name="Capa 2"><g id="USA"><path class="cls-1" d="M7.35,34.69h7.88V75.84a10.67,10.67,0,0,0,3.09,7.89q3.76,3.78,11,3.77t11-3.77a10.66,10.66,0,0,0,3.08-7.89V34.69h7.89v41.5a16.7,16.7,0,0,1-4.8,12.34Q41,94,29.29,94T12.15,88.53a16.66,16.66,0,0,1-4.8-12.34Z"/><rect class="cls-2" width="58.64" height="116.31"/><rect class="cls-3" x="58.42" width="57.9" height="116.31"/><path class="cls-4" d="M64.29,34.64H91.56a16.61,16.61,0,0,1,12.27,4.77q4.77,4.77,4.77,13.29t-4.43,13q-4.44,4.44-12.61,4.44H72.13V92.92H64.29Zm7.84,6.47v22.5H89.86a10.13,10.13,0,0,0,7.49-2.73,11,11,0,0,0,3.07-8.18q0-5.79-2.73-8.52a10.63,10.63,0,0,0-7.83-3.07Z"/><path class="cls-4" d="M8,34.56h7.84v40.9a10.61,10.61,0,0,0,3.07,7.84q3.73,3.75,10.9,3.75T40.75,83.3a10.65,10.65,0,0,0,3.07-7.84V34.56h7.84V75.8a16.62,16.62,0,0,1-4.78,12.27q-5.44,5.46-17,5.45t-17-5.45A16.61,16.61,0,0,1,8,75.8Z"/><rect class="cls-4" x="17.6" y="22.71" width="7.84" height="7.5"/><rect class="cls-4" x="33.96" y="22.71" width="7.84" height="7.5"/></g></g></svg>