<svg xmlns="http://www.w3.org/2000/svg" width="97.11mm" height="26.13mm" viewBox="0 0 275.28 74.08"><title>Recurso 4</title><path d="M5.67,0H114a5.67,5.67,0,0,1,5.67,5.67v16.4a0,0,0,0,1,0,0H0a0,0,0,0,1,0,0V5.67A5.67,5.67,0,0,1,5.67,0Z" fill="#040006"/><path d="M.64,22.07H266.47a8.5,8.5,0,0,1,8.5,8.5v34.7a8.5,8.5,0,0,1-8.5,8.5H9.15a8.5,8.5,0,0,1-8.5-8.5V22.07A0,0,0,0,1,.64,22.07Z" fill="none" stroke="#040006" stroke-miterlimit="10" stroke-width="0.6"/><text transform="translate(7.85 16.39)" font-size="14.25" fill="#eacb5d" font-family="SegoeUI-Bold, Segoe UI" font-weight="700">IDIOMAS</text><path d="M174.12,48.7a11.68,11.68,0,0,0-3.4-8.46" fill="none" stroke="#514e4c" stroke-miterlimit="10" stroke-width="3.56"/><path d="M174.28,49.31a13.93,13.93,0,1,1-27.86,0" fill="none" stroke="#f4d95d" stroke-miterlimit="10" stroke-width="3.56"/><path d="M146.41,49.61a14.74,14.74,0,0,1,4-10.22,13.93,13.93,0,0,1,19.7,0" fill="none" stroke="#f4d95d" stroke-miterlimit="10" stroke-width="3.56"/><text transform="translate(155.98 51.79)" font-size="7.66" fill="#f4d95d" font-family="SegoeUI-Semibold, Segoe UI" font-weight="600">80</text><text transform="translate(19.97 51.44)" font-size="8.06" fill="#f4d95d" font-family="SegoeUI-Semibold, Segoe UI" font-weight="600">100</text><circle cx="26.06" cy="48.83" r="14.66" fill="none" stroke="#f4d95d" stroke-miterlimit="10" stroke-width="3.56"/><text transform="translate(185.55 40.24)" font-size="14.5" fill="#f4d95d" font-family="SegoeUI-Semibold, Segoe UI" font-weight="600">INGLÉS</text><text transform="translate(53.04 42.77)" font-size="15.09" fill="#f4d95d" font-family="SegoeUI-Semibold, Segoe UI" font-weight="600">ES<tspan x="16.03" y="0" letter-spacing="-0.07em">P</tspan><tspan x="23.81" y="0">AÑOL</tspan><tspan fill="#efe3c3" font-family="SegoeUI-LightItalic, Segoe UI" font-weight="300" font-style="italic"><tspan x="0" y="18.11">Nativo</tspan></tspan></text><text transform="translate(185.67 59.65)" font-size="14.5" fill="#efe3c3" font-family="SegoeUI-LightItalic, Segoe UI" font-weight="300" font-style="italic"><tspan letter-spacing="-0.03em">T</tspan><tspan x="7.01" y="0">OFEL 600</tspan></text></svg>