<svg xmlns="http://www.w3.org/2000/svg" width="399" height="105"><title>tecnologico-de-monterrey-blue</title><desc>Created with Sketch.</desc><g fill="#fff"><path d="M76.35 40.58c-3.37 3.37-10.06 9.75-15.43 15.06-12.68 11.53-12.88 18.96-12.2 22.44-9.32-10.9-1.93-19.08 2.82-23.7 2.18-2.14 15.62-15.3 18.7-18.24 10.9-10.36 10.88-13.46 10.88-13.46 4.14 9.74-1.4 14.54-4.77 17.9zm-.32 16.17c-3.3 3.23-1.98 1.93-7.35 7.17-8.73 8.5-8.78 14.16-8.78 14.16-4.88-5.32-1.9-14.17 3.36-19.28 2.17-2.12 6.23-5.95 9.1-8.68 5.9-5.57 7.76-7.2 8.6-9.34 2.25 9.33-2.7 13.6-4.93 15.97zM39.9 50.02c2.4-2.33 17.8-17.4 20.75-20.24 9.54-9.24 9.1-12.14 9.1-12.14 4.13 9.74-1.52 15.06-4.9 18.4-3.7 3.64-13.08 12.8-18.47 18.07-13.55 13.27-8.7 24-8.7 24-8.6-6.35-6.66-19.44 2.2-28.07zm-5.63-10.4c2.43-2.4 15.5-15.15 19.94-19.44 9.3-9 8.78-12.58 9.2-14.46 6.5 6.65 2.5 13.4-1 16.9-3.1 3.07-17.64 17.66-23.54 23.02-1.5 1.37-11.3 10.3-10.65 18.56-5.45-6.88-4-15.6 6.08-24.58zM22.3 35.97c2.2-2.27 18.83-18.4 21.65-21.23 6.88-6.87 5.52-12.4 5.52-12.4 7.96 6.02 5.04 12.53.72 16.7-3.53 3.38-15.95 15.8-21.7 21.28-9.1 8.7-8 15.88-6.26 22.03-6.68-6.8-9.7-16.26.06-26.38zM49.8.2C22.3.2 0 22.34 0 49.7c0 25.25 19 46.08 43.57 49.12v-7c-8.2-1.23-16.4-4-21.85-11.44h56.14C72.4 87.82 64.2 90.58 56 91.8v7.02c24.58-3.04 43.6-23.87 43.6-49.12C99.6 22.35 77.3.2 49.8.2zM146.54 30.4c2.4 0 4.68-.04 7.12-.14.83 0 1.14-.2 1.14-1.04 0-2.63-1.35-5.22-3.7-5.22-2.12 0-4.1 2.33-4.56 6.4zm13.72 10.15c-3.17 4.4-7.07 5.42-9.04 5.42-6.7 0-10.5-5.1-10.5-11.06 0-3.8 1.5-7 3.7-9.2 2.22-2.3 5.08-3.7 7.78-3.7h.06c4.62 0 8.2 4 8.2 8.1 0 1.05-.3 1.6-1.4 1.8-.88.13-7.27.64-12.78.85.15 6.1 3.58 8.94 7.28 8.94 2.02 0 4-.73 5.82-2.38l.88 1.25zM182.98 40.5c-2.34 3.2-5.77 5.47-8.9 5.47-6.9 0-10.96-5.32-10.96-10.9 0-3.88 1.87-7.45 5.25-9.98 3.12-2.35 6.45-3.13 8.43-3.13h.05c1.92 0 3.64.63 4.52 1.3.73.57.94 1.08.94 1.8-.03 1.35-1.3 2.6-2.06 2.6-.3 0-.63-.16-1.1-.58-1.92-1.7-3.63-2.5-5.24-2.5-2.56 0-5.1 2.34-5.1 7.8 0 7 4.93 9.27 7.43 9.27 2.18 0 3.74-.56 5.82-2.37l.93 1.2M199.26 45.35V43.8c2.5-.3 2.8-.57 2.8-4.18v-8.74c0-3.67-1.55-5.23-4-5.23-1.6 0-3.06.83-4.52 1.97v12.36c0 3.3.3 3.5 2.75 3.82v1.55H184.2V43.8c3.33-.4 3.6-.57 3.6-3.98v-10.7c0-3.15-.27-3.36-2.92-3.88V23.9c2.76-.42 5.83-1.1 8.64-2.02v3.93c1.04-.7 2.13-1.53 3.33-2.3 1.5-1 2.65-1.5 4.16-1.5 4.16 0 6.76 3 6.76 8.1V40c0 3.3.3 3.45 3.1 3.8v1.56h-11.65"/><path d="M219.48 32.7c0 6.4 2.34 11.36 5.98 11.36 2.45 0 4.73-1.65 4.73-9.1 0-6.72-2.1-11.06-5.9-11.06-2.5 0-4.83 2.9-4.83 8.8zm17.2.87c0 8.32-6.02 12.4-11.8 12.4-7.8 0-11.9-5.8-11.9-11.47 0-8.38 6.6-12.52 12.12-12.52 6.9 0 11.6 5.33 11.6 11.6zM238.15 45.35V43.8c3.17-.4 3.54-.67 3.54-4.03V15.83c0-3.3-.3-3.4-3.35-3.77v-1.4c2.9-.3 6.55-1.08 9.04-1.8v30.9c0 3.47.36 3.73 3.6 4.04v1.55h-12.86"/><path d="M262.9 19.3c.83-2.23 2.55-7.4 2.9-8.38.53-.3 4.38-.72 5.16-.57l.26.52-6.76 9.1-1.56-.67zm-3.54 13.4c0 6.4 2.34 11.36 5.98 11.36 2.45 0 4.73-1.65 4.73-9.1 0-6.72-2.08-11.06-5.87-11.06-2.5 0-4.84 2.9-4.84 8.8zm17.2.87c0 8.32-6.02 12.4-11.8 12.4-7.8 0-11.9-5.8-11.9-11.47 0-8.38 6.6-12.52 12.12-12.52 6.9 0 11.6 5.33 11.6 11.6zM286.1 29.7c0 3.76 1.44 6.66 4.04 6.66 2.08 0 3.54-2.07 3.54-6 0-3.62-1.4-6.57-4.1-6.57-1.78 0-3.5 2-3.5 5.9zm-.27 17.62c-1 .88-1.6 1.9-1.6 3.15 0 2.64 2.7 4.97 6.74 4.97 4.27 0 6.66-2.28 6.66-5.17 0-1.86-1.15-3-2.7-3.52-1.36-.4-2.6-.52-4.68-.52-2.5 0-3.64.32-4.42 1.1zM303 23.02c-.38.88-1.37 2.43-2.25 3l-3.02-.2c.9 1.08 1.46 2.42 1.46 4.18 0 5.48-4.8 8.17-9.64 8.17-.88 0-1.77-.16-2.6-.26-.52.43-1.04 1.1-1.04 1.73 0 .88.9 1.96 3.33 1.9 1.77 0 3.38-.04 5.04-.04 3.22 0 7.8.92 7.8 6.2 0 5.73-6.6 10.54-13.53 10.54-6.34 0-9.4-3.4-9.46-6.3 0-1.2.58-2.08 1.5-2.9 1.2-1.04 2.77-2.07 4-2.95-2-.68-3.15-1.7-3.83-2.86-.52-.77-.78-1.9-.72-2.53 2.5-.92 4.16-2.3 5.04-3.3-2.87-1-4.9-3.57-4.9-6.87 0-5.85 5.36-8.54 9.8-8.54h.03c1.97 0 3.53.46 5.35 1.34 2.6-.1 5.3-.4 7.33-.67l.27.36zM306.73 15c0-1.86 1.5-3.3 3.33-3.3 1.82 0 3.27 1.44 3.27 3.3 0 1.76-1.45 3.26-3.33 3.26-1.76 0-3.27-1.5-3.27-3.25zm-2.65 30.35V43.8c3.12-.3 3.43-.57 3.43-4.18v-10.4c0-3.3-.24-3.5-3-3.93v-1.46c2.97-.37 6.1-1.04 8.74-1.92v17.7c0 3.5.26 3.8 3.48 4.17v1.54H304.1zM338.5 40.5c-2.34 3.2-5.78 5.47-8.9 5.47-6.9 0-10.97-5.32-10.97-10.9 0-3.88 1.88-7.45 5.26-9.98 3.1-2.35 6.42-3.13 8.4-3.13h.05c1.92 0 3.64.63 4.52 1.3.73.57.94 1.08.94 1.8-.04 1.35-1.3 2.6-2.07 2.6-.3 0-.62-.16-1.1-.58-1.92-1.7-3.63-2.5-5.24-2.5-2.56 0-5.1 2.34-5.1 7.8 0 7 4.93 9.27 7.43 9.27 2.18 0 3.74-.56 5.82-2.37l.93 1.2"/><path d="M346.5 32.7c0 6.4 2.34 11.36 5.98 11.36 2.44 0 4.73-1.65 4.73-9.1 0-6.72-2.05-11.06-5.85-11.06-2.5 0-4.84 2.9-4.84 8.8zm17.2.87c0 8.32-6.02 12.4-11.8 12.4-7.8 0-11.9-5.8-11.9-11.47 0-8.38 6.6-12.52 12.12-12.52 6.9 0 11.6 5.33 11.6 11.6zM132.33 73.2c-.98-1.8-2.65-2.63-4.36-2.63-1.67 0-5.77 1.55-5.77 9.3 0 6.26 3.74 8.9 6.5 8.9 1.3 0 2.44-.4 3.63-1.2V73.22zm9.47 17.27c-1.25.2-5.72.83-9.47 2.02v-3.17l-3.17 1.96c-1.56.92-2.54 1.13-3.12 1.13-4.36 0-10.3-3.67-10.3-11.22 0-7.02 6.25-12.76 14-12.76.5 0 1.4.1 2.6.36v-6.6c0-3-.32-3.26-3.7-3.57v-1.5c3.12-.37 7.02-1.1 9.4-1.8V85.5c0 2.86.33 3.06 2.4 3.32l1.36.16v1.5zM149.77 76.88c2.4 0 4.68-.05 7.13-.16.83 0 1.14-.2 1.14-1.03 0-2.66-1.35-5.24-3.7-5.24-2.12 0-4.1 2.32-4.57 6.4zM163.5 87c-3.17 4.4-7.07 5.44-9.05 5.44-6.7 0-10.5-5.12-10.5-11.06 0-3.83 1.5-7.04 3.7-9.2 2.23-2.33 5.1-3.73 7.8-3.73h.04c4.6 0 8.2 3.98 8.2 8.12 0 1.03-.3 1.6-1.4 1.8-.9.1-7.3.63-12.8.83.16 6.1 3.6 8.95 7.3 8.95 2 0 4-.73 5.8-2.38l.9 1.24zM206.24 91.82v-1.65c4-.42 4.26-.78 4.2-5.8l-.1-20.3h-.25l-11.93 27.4h-1.3L185.9 64.6h-.2l-.67 13.96c-.2 4.3-.2 6.62-.06 8.43.16 2.4 1.25 2.8 4.73 3.1v1.7h-12.37v-1.7c2.96-.26 3.95-1.1 4.32-3 .3-1.7.67-4.23 1.03-9.66l.78-10.4c.47-6.2.1-6.77-4.4-7.18V58.2h9.92L199.63 82l10.87-23.8h9.88v1.67c-4.32.4-4.52.72-4.42 5.37l.47 19.13c.15 5.02.36 5.38 4.57 5.8v1.65h-14.76"/><path d="M229.2 79.15c0 6.4 2.34 11.38 5.98 11.38 2.44 0 4.73-1.66 4.73-9.1 0-6.72-2.06-11.07-5.86-11.07-2.5 0-4.83 2.9-4.83 8.8zm17.2.88c0 8.33-6.02 12.4-11.8 12.4-7.8 0-11.9-5.78-11.9-11.47 0-8.37 6.6-12.5 12.1-12.5 6.93 0 11.6 5.32 11.6 11.57zM263.08 91.82v-1.55c2.5-.3 2.8-.57 2.8-4.2v-8.73c0-3.67-1.55-5.22-4-5.22-1.6 0-3.06.83-4.52 1.97v12.33c0 3.3.3 3.52 2.76 3.83v1.55h-12.06v-1.54c3.32-.42 3.58-.57 3.58-3.98V75.6c0-3.17-.26-3.38-2.9-3.9v-1.34c2.75-.4 5.82-1.08 8.62-2v3.92c1.04-.73 2.13-1.56 3.33-2.33 1.5-.98 2.63-1.5 4.14-1.5 4.16 0 6.76 3 6.76 8.12v9.87c0 3.3.32 3.47 3.13 3.83v1.55h-11.65M286.44 91.82c-.94.4-1.72.62-2.13.62-3.73 0-5.9-1.9-5.9-6.4V71.4H275l-.26-.57 1.45-1.76h2.17V65.3l5-3.83.72.26v7.34h5.34c.57.57.47 1.9-.3 2.33h-5.05v12.92c0 4.1 1.8 4.66 2.95 4.66 1.04 0 2.03-.3 2.86-.68l.48 1.6-3.96 1.92"/><path d="M297.32 76.88c2.4 0 4.68-.05 7.12-.16.83 0 1.15-.2 1.15-1.03 0-2.66-1.37-5.24-3.7-5.24-2.15 0-4.1 2.32-4.6 6.4zM311.04 87c-3.17 4.4-7.06 5.44-9.04 5.44-6.7 0-10.5-5.12-10.5-11.06 0-3.83 1.5-7.04 3.7-9.2 2.22-2.33 5.08-3.73 7.8-3.73h.04c4.63 0 8.2 3.98 8.2 8.12 0 1.03-.3 1.6-1.4 1.8-.87.1-7.27.63-12.78.83.16 6.1 3.6 8.95 7.28 8.95 2.02 0 4-.73 5.82-2.38l.88 1.24zM322.08 73.93c1.77-3.05 3.9-5.48 6.03-5.48 2 0 3.35 1.45 3.35 3s-1 2.84-2.24 3.3c-.66.32-1.2.16-1.5-.15-.9-.72-1.5-1.03-2.34-1.03-1.14 0-2.4.93-3.37 3.3v9.57c0 3.26.24 3.52 4.25 3.83v1.55h-13.4v-1.55c2.95-.3 3.42-.57 3.42-3.83V75.38c0-2.95-.32-3.16-2.97-3.67v-1.33c2.9-.36 5.7-.98 8.68-2v5.57h.1M342.5 73.93c1.76-3.05 3.9-5.48 6.03-5.48 1.97 0 3.33 1.45 3.33 3s-1 2.84-2.24 3.3c-.68.32-1.2.16-1.5-.15-.9-.72-1.52-1.03-2.35-1.03-1.14 0-2.4.93-3.38 3.3v9.57c0 3.26.24 3.52 4.25 3.83v1.55h-13.42v-1.55c2.97-.3 3.43-.57 3.43-3.83V75.38c0-2.95-.3-3.16-2.96-3.67v-1.33c2.92-.36 5.73-.98 8.7-2v5.57h.1"/><path d="M358.43 76.88c2.4 0 4.68-.05 7.13-.16.83 0 1.14-.2 1.14-1.03 0-2.66-1.35-5.24-3.7-5.24-2.12 0-4.1 2.32-4.57 6.4zM372.16 87c-3.17 4.4-7.07 5.44-9.05 5.44-6.7 0-10.5-5.12-10.5-11.06 0-3.83 1.53-7.04 3.7-9.2 2.25-2.33 5.1-3.73 7.8-3.73h.06c4.63 0 8.22 3.98 8.22 8.12 0 1.03-.3 1.6-1.4 1.8-.9.1-7.3.63-12.8.83.16 6.1 3.6 8.95 7.28 8.95 2.03 0 4-.73 5.83-2.38l.87 1.24zM398.1 70.57c-2.6.46-3.06.93-4.4 3.77-1.32 2.74-2.98 7.04-6.25 14.74-3.5 8.27-4.53 11.43-5.4 14.32-.32 1.1-1 1.35-1.83 1.35-1.46 0-3.38-1.4-3.38-3 0-.83.36-1.3 1.35-1.97 1.9-1.03 3.05-2.17 4.1-4.03.72-1.24 1.03-2.02 1.24-2.64.26-.8.15-1.53-.16-2.4-2.5-6.88-5.15-13.86-6.35-16.66-1-2.43-1.56-3.05-4.16-3.46v-1.5h12v1.5c-2.3.46-2.65.83-2.03 2.6l4.2 12.03c1.3-3.14 3.24-8.67 4.22-11.72.56-1.82.15-2.44-2.55-2.9v-1.5h9.36v1.5M115 11.06c-.14 3.06-.38 5.85-.56 8.88h1.75c.6-2.52 1.17-4.2 1.94-5.1.72-1 1.7-1.46 5.92-1.46h2.32v25.15c0 4.36-.53 4.78-4.96 5.15v1.67h16.07v-1.67c-4.7-.37-5.15-.8-5.15-5.15V13.38h2.78c3.35 0 4.48.3 5.4 1.36.78.9 1.4 2.52 2.02 5.15l1.7-.1c-.22-2.74-.43-5.85-.5-8.75H115"/></g></svg>