<svg xmlns="http://www.w3.org/2000/svg" width="576" height="167"><g id="Page-1" fill="none"><g><g><path fill="#fff" d="M529.9 140.22h16.5l28.55-72.33h-16.33l-11.8 36-12.43-36h-18.24l21.7 52.24-7.95 20.08zm-81.88-55.16v37.08h-16.64V67.9h11.7l3.47 4.73c4.53-3.8 9.38-6 14.96-6 7.5 0 13.18 2.2 16.65 7.68 5.06-4.62 10.43-7.68 17.28-7.68 12.85 0 20.33 6.64 20.33 24.65v30.87h-16.64V93.17c0-8.32-3.37-10.75-8.75-10.75-3.16 0-5.8.84-8.74 2.74.2 1.9.32 3.9.32 6.1v30.88H465.3V93.17c0-8.32-3.37-10.75-8.85-10.75-3.05 0-5.58.74-8.43 2.64zm-58.04 4.63h21.38c-1.16-7.06-4.95-10.44-10.64-10.44-4.85 0-9.48 2.85-10.74 10.43zm11.9 33.5c-16 0-28.87-7.9-28.87-28.77 0-19.5 12.45-27.9 26.77-27.9 17.28 0 24.97 12.1 24.97 31.17h-34.87c1.16 9.37 6.95 12.1 14.64 12.1 7.45 0 13.27-1.82 17.77-4.85l-2.26 13.2c-4.28 3.32-9.44 5.04-18.12 5.04zm-61.98-14.02c3.8 0 6.64-.63 9.6-2.84v-23.6c-2.64-1.58-5.27-2.32-9.07-2.32-8.1 0-12.74 5.48-12.74 14.64 0 8.96 4.73 14.12 12.2 14.12zm12.86 8.96c-4.32 3.26-9.27 5.26-16.33 5.26-14.86 0-25.6-9.16-25.6-28.02 0-18.75 12.33-28.86 28.13-28.86 3.68 0 7.27.52 10.53 1.8V45.27h16.64v76.86H355.6l-2.84-4zM240.3 90V49.8h17.28v39.9c0 14.32 6.43 17.27 15.28 17.27 9.58 0 14.53-4.22 14.53-17.28V49.8h17.38V90c0 23.7-10.33 33.6-32.76 33.6-20.86 0-31.7-8.52-31.7-33.6z"/><path fill="#EA5252" d="M196.28 93.02c-.7-.56-1.5-.94-2.35-1.1-5.06 5.05-11.25 10.37-16.74 13.94-2.54 1.7-5.73 2.53-7.84 2.53-4.85 0-6.96-4.64-7.6-12-.84-9.9-1.4-21.73-1.4-40.03 0-18.77-4.27-31.53-15.62-32.53-.48-.04-.96-.07-1.47-.07-6.97 0-10.34 3.57-14.78 12.62-3.8 7.77-9.72 19.13-20.7 40.6-9.5 18.5-20.05 34.9-29.12 46.26-2.53 3.15-4.53 5.3-6.4 6.55-1.26.83-2.47 1.24-3.73 1.24-3.6 0-6.2-3.02-7.08-10.06-.2-1.67-.3-3.57-.3-5.7 0-14.52 5.48-38.08 14.97-72.8C83.1 17.26 80.14 0 64.94 0c0 0-.03 0-.06 0s-.06 0-.1 0c-3.45.04-6.3 1.3-9.05 3.45-2.7 2.14-5.42 6.74-7.94 12.93C44.93 23.35 27.6 58.1 0 76.02c-.33 6.8 3.53 13.62 11.34 14.35 7.1.68 12.16-2.32 18.66-6.68-.5 2.16-.94 4.2-1.35 6.04-.5 2.2-.9 4.1-1.23 5.6-.5 2.3-.8 3.75-.9 4.15-.9 4.13-1.55 8.07-1.97 11.8-3.9 34.77 12.23 51.93 31.1 51.93 3.15 0 6.28-.38 9.38-1.17 20.8-5.27 40.8-29.12 64.5-84.02-.36 5.97-.4 11.55-.14 16.72 1.57 31.47 14.02 40.9 31.6 40.9 13.3 0 25.76-6.93 32.1-15.55 4.63-6.1 6.53-12.83 6.53-18.08 0-4.1-1.3-7.34-3.35-9"/></g></g></g></svg>