<svg xmlns="http://www.w3.org/2000/svg" width="556.54" height="583.35"><title>Recurso 7cloth</title><circle cx="29.52" cy="216.51" r="28.51" fill="none" stroke="#000" stroke-miterlimit="10"/><circle cx="209.61" cy="216.24" r="28.51" fill="none" stroke="#000" stroke-miterlimit="10"/><path fill="none" stroke="#000" stroke-miterlimit="10" d="M320.3 571.1v-304h146.12s81.12.9 81.12 86.5-80.22 88.8-80.22 88.8h-50.54l.7-34.73h23.22l17.74-.16c18.45-2 47.2-11.6 47.2-52.48 0-60.16-62.32-52.64-62.32-52.64h-81.65v268.6zM94.16 266.54l-24.28 36.94-28.76.17v147.2c0 69.7 30.92 99.24 72.46 99.24 46.15 0 75.7-30.48 75.7-99.25V266.7h40.6v181.38c0 95.54-50.3 134.77-117.7 134.77C48.5 582.85.5 546.4.5 449.93V266.7z"/><path d="M38.78 1.2h16.34v116.5H38.78zm11 101h26.4q12.9 0 20-6.7t7.1-18.86V42.3q0-12.18-7.1-18.87t-20-6.7H49.84V1.2H75.7q14 0 24 4.9a34.06 34.06 0 0 1 15.15 14.25q5.15 9.38 5.15 22.6V76q0 13.22-5.2 22.6a34 34 0 0 1-15.17 14.2q-10 4.9-24 4.9h-25.8zM146.48.93h16.37V117.7h-16.37zm7.14 51.84h39.8a15.33 15.33 0 0 0 8.27-2.25 14.7 14.7 0 0 0 5.56-6.37 21.8 21.8 0 0 0 2-9.5 21.73 21.73 0 0 0-2-9.52 14.84 14.84 0 0 0-5.53-6.38 15.25 15.25 0 0 0-8.3-2.25h-39.8V.93h39.15a36.63 36.63 0 0 1 17.78 4.17 29.35 29.35 0 0 1 11.87 11.84 36.14 36.14 0 0 1 4.2 17.7 35.8 35.8 0 0 1-4.24 17.7 29.47 29.47 0 0 1-11.93 11.83 36.4 36.4 0 0 1-17.7 4.17h-39.15zm31.78 12L201.7 61l29.84 56.65h-19.42zM253.58 1.2h16.35v116.5h-16.35zm7.93 0h66.9v15.54h-66.9zm0 50.88h58.1v15.54h-58.1zm0 50.07h66.9v15.54h-66.9zM378.24 118.9l-7.53-1.6a60.1 60.1 0 0 1-14.05-4.82 59 59 0 0 1-12.2-8L354.6 92a46.06 46.06 0 0 0 14.67 8.66 51 51 0 0 0 17.4 2.88q12.63 0 19.6-4.7a15 15 0 0 0 7-13.25v-.1q0-6.07-3.15-9.64a18.87 18.87 0 0 0-8.17-5.3A90.52 90.52 0 0 0 389 67.4a1.46 1.46 0 0 0-.52-.08 1.72 1.72 0 0 1-.52-.08l-1.2-.24a125.74 125.74 0 0 1-19-4.53 26.75 26.75 0 0 1-12.54-9.2q-5.2-6.7-5.2-19v-.1q0-10.8 4.84-18.46A30.4 30.4 0 0 1 369 4q9.3-4 22.35-4a55.67 55.67 0 0 1 12.3 1.36A61.38 61.38 0 0 1 415.6 5.4a68.9 68.9 0 0 1 11.57 6.78l-9.3 13a54.2 54.2 0 0 0-13.26-7.33 37.94 37.94 0 0 0-13.25-2.45q-11.94 0-18.54 4.77t-6.6 13.5v.08c0 4 1.13 7.16 3.4 9.45a20.53 20.53 0 0 0 8.4 5.07 126.2 126.2 0 0 0 14.14 3.4 4 4 0 0 0 .6.12 5.6 5.6 0 0 1 .6.12l.9.16c.3.05.6.1.87.16a96.85 96.85 0 0 1 17.67 5.12 27.58 27.58 0 0 1 11.86 9.58q4.77 6.6 4.77 18.06v.16q0 10.66-5.05 18.23a31.46 31.46 0 0 1-14.62 11.53q-9.57 4-23.1 4zM476.07 118.9l-7.54-1.6a60.25 60.25 0 0 1-14.06-4.82 59 59 0 0 1-12.2-8L452.42 92a46.06 46.06 0 0 0 14.66 8.66 51 51 0 0 0 17.38 2.88q12.66 0 19.63-4.7a15.07 15.07 0 0 0 7-13.25v-.1q0-6.07-3.16-9.64a18.87 18.87 0 0 0-8.17-5.3 90.52 90.52 0 0 0-12.94-3.15 1.46 1.46 0 0 0-.52-.07 1.72 1.72 0 0 1-.5-.08l-1.2-.24a125.74 125.74 0 0 1-19-4.52 26.75 26.75 0 0 1-12.6-9.24q-5.2-6.7-5.2-19v-.08q0-10.82 4.84-18.47A30.45 30.45 0 0 1 466.77 4q9.3-4 22.35-4a55.67 55.67 0 0 1 12.3 1.36 61.38 61.38 0 0 1 11.94 4.05 68.9 68.9 0 0 1 11.58 6.78l-9.3 13a54.2 54.2 0 0 0-13.26-7.33 37.94 37.94 0 0 0-13.26-2.45q-11.94 0-18.54 4.77T464 33.65v.08c0 4 1.13 7.16 3.4 9.45a20.5 20.5 0 0 0 8.5 5.1 125.66 125.66 0 0 0 14.1 3.4 3.54 3.54 0 0 0 .6.1 6 6 0 0 1 .6.14l.88.16c.32.05.6.1.88.16a97.2 97.2 0 0 1 17.67 5.12 27.6 27.6 0 0 1 11.85 9.58q4.77 6.6 4.77 18.06v.16q0 10.66-5 18.23a31.46 31.46 0 0 1-14.62 11.53q-9.57 4-23.1 4z"/><circle cx="38.52" cy="206.51" r="28.51"/><circle cx="218.61" cy="206.24" r="28.51"/><path d="M329.3 561.1v-304h146.12s81.12.9 81.12 86.5-80.22 88.8-80.22 88.8h-50.54l.7-34.73h23.22l17.74-.16c18.45-2 47.2-11.6 47.2-52.48 0-60.16-62.32-52.64-62.32-52.64h-81.65v268.6zM103.16 256.54l-24.28 36.94-28.76.17v147.2c0 69.7 30.92 99.24 72.46 99.24 46.15 0 75.7-30.48 75.7-99.25V256.7h40.6v181.38c0 95.54-50.3 134.77-117.7 134.77C57.5 572.85 9.5 536.4 9.5 439.93V256.7z"/><path fill="none" stroke="#000" stroke-miterlimit="10" d="M369.84 124.9l-7.68-1.64a60 60 0 0 1-26.8-13.07l10.4-12.75a46.84 46.84 0 0 0 14.93 8.82 52 52 0 0 0 17.7 2.94q12.92 0 20-4.77a15.34 15.34 0 0 0 7.12-13.5v-.1q0-6.2-3.23-9.84a19.38 19.38 0 0 0-8.3-5.4 92.7 92.7 0 0 0-13.2-3.22 1.5 1.5 0 0 0-.52-.08 1.78 1.78 0 0 1-.53-.08L378.5 72a127.8 127.8 0 0 1-19.4-4.6 27.35 27.35 0 0 1-12.78-9.4Q341 51.15 341 38.57v-.08q0-11 4.94-18.84a31 31 0 0 1 14.42-11.88q9.48-4.08 22.8-4.1a57.24 57.24 0 0 1 12.53 1.4 62.4 62.4 0 0 1 12.16 4.13 69.78 69.78 0 0 1 11.8 6.9l-9.48 13.24a55.42 55.42 0 0 0-13.5-7.47 38.77 38.77 0 0 0-13.53-2.5q-12.16 0-18.9 4.86T357.5 38v.08q0 6.12 3.48 9.63a21 21 0 0 0 8.65 5.2 130.7 130.7 0 0 0 14.42 3.47 3.85 3.85 0 0 0 .6.12 5.15 5.15 0 0 1 .62.12l.9.16.9.16a98.9 98.9 0 0 1 18 5.23 28.08 28.08 0 0 1 12.1 9.76Q422 78.66 422 90.35v.16q0 10.87-5.15 18.6A32.14 32.14 0 0 1 402 120.84q-9.76 4-23.57 4zM469.56 124.9l-7.68-1.64a60 60 0 0 1-26.8-13.07l10.38-12.75a47 47 0 0 0 15 8.82 51.92 51.92 0 0 0 17.72 2.94q12.9 0 20-4.77a15.34 15.34 0 0 0 7.1-13.5v-.1q0-6.2-3.22-9.84a19.38 19.38 0 0 0-8.33-5.4 92.7 92.7 0 0 0-13.2-3.22 1.5 1.5 0 0 0-.52-.08 1.78 1.78 0 0 1-.52-.08L478.2 72a127.62 127.62 0 0 1-19.38-4.6A27.3 27.3 0 0 1 446 58q-5.3-6.8-5.3-19.4v-.07q0-11 4.93-18.83a31 31 0 0 1 14.45-11.92q9.48-4.08 22.8-4.1a57.3 57.3 0 0 1 12.53 1.4 62.1 62.1 0 0 1 12.17 4.13 69.47 69.47 0 0 1 11.8 6.9l-9.47 13.24a55.42 55.42 0 0 0-13.5-7.47 38.82 38.82 0 0 0-13.53-2.5q-12.17 0-18.9 4.86T457.2 38v.08q0 6.12 3.48 9.63a20.9 20.9 0 0 0 8.65 5.2 130.12 130.12 0 0 0 14.42 3.47 3.64 3.64 0 0 0 .6.12 5.6 5.6 0 0 1 .62.12l.9.16.9.16a98.9 98.9 0 0 1 18 5.23 28 28 0 0 1 12.07 9.76q4.86 6.73 4.86 18.42v.16q0 10.87-5.14 18.6a32.12 32.12 0 0 1-14.92 11.75q-9.75 4-23.56 4z"/><path fill="none" stroke="#000" d="M29.24 121.2h47.92s25.48-3.05 33.64-22.42 2-75.43 2-75.43L75.12 4H30.26zM50.65 99.8H71s21.4 2 21.4-22.43V42.72s-2-18.35-24.4-18.35H48.6zM136.28 121.2h22.43V74.33H173l26.5 46.9H226l-24.48-48.94S225 61.06 224 38.64 214.77 4 196.43 4h-60.15zM159.73 55h26.5s12.23-5.1 12.23-16.3-5.1-14.28-16.3-14.28h-22.43zM242.34 121.2h80.53l.37-12.84-56.44-2V73.3h46.9V53.93h-48.94V24.37h57.1V3.97h-78.5l-1.02 117.24z"/></svg>