<svg xmlns="http://www.w3.org/2000/svg" width="556.04" height="582.85" viewBox="0 0 556.04 582.85"><title>Recurso 5cloth</title><path d="M29.28,11.2H45.62V127.69H29.28Zm11,101H66.69q12.9,0,20-6.69t7.09-18.87V52.3q0-12.18-7.09-18.87t-20-6.69H40.33V11.2H66.21q14,0,24,4.89a34.06,34.06,0,0,1,15.14,14.26q5.2,9.38,5.21,22.59V86q0,13.22-5.21,22.59A34,34,0,0,1,90.13,122.8q-10,4.89-24,4.89H40.33Z" fill="#151bff"/><path d="M137,10.93h16.37V127.69H137Zm7.14,51.84h39.8a15.33,15.33,0,0,0,8.27-2.25,14.71,14.71,0,0,0,5.57-6.37,21.79,21.79,0,0,0,2-9.51,21.73,21.73,0,0,0-2-9.51,14.84,14.84,0,0,0-5.53-6.38,15.25,15.25,0,0,0-8.31-2.25h-39.8V10.93h39.16a36.63,36.63,0,0,1,17.78,4.17,29.35,29.35,0,0,1,11.87,11.84,36.14,36.14,0,0,1,4.21,17.7,35.81,35.81,0,0,1-4.25,17.69A29.47,29.47,0,0,1,201,74.17a36.39,36.39,0,0,1-17.69,4.17H144.12Zm31.78,12L192.19,71,222,127.69H202.62Z" fill="#151bff"/><path d="M244.08,11.2h16.35V127.69H244.08Zm7.93,0h66.9V26.74H252Zm0,50.88H310.1V77.62H252Zm0,50.07h66.9v15.54H252Z" fill="#151bff"/><path d="M368.74,128.89l-7.53-1.6a60.1,60.1,0,0,1-14.06-4.81,59,59,0,0,1-12.21-8L345.11,102a46.06,46.06,0,0,0,14.66,8.66,51,51,0,0,0,17.39,2.88q12.64,0,19.62-4.69a15,15,0,0,0,7-13.26v-.08q0-6.08-3.16-9.65a18.87,18.87,0,0,0-8.17-5.29,90.52,90.52,0,0,0-12.94-3.16,1.46,1.46,0,0,0-.52-.08,1.72,1.72,0,0,1-.52-.08l-1.2-.24a125.74,125.74,0,0,1-19-4.53,26.75,26.75,0,0,1-12.54-9.21q-5.21-6.69-5.21-19v-.08q0-10.82,4.85-18.47A30.4,30.4,0,0,1,359.45,14q9.3-4,22.35-4a55.67,55.67,0,0,1,12.3,1.36A61.38,61.38,0,0,1,406,15.41a68.91,68.91,0,0,1,11.58,6.77l-9.3,13a54.19,54.19,0,0,0-13.26-7.33,37.94,37.94,0,0,0-13.26-2.45q-11.94,0-18.54,4.77t-6.61,13.5v.08c0,4,1.13,7.16,3.4,9.45a20.53,20.53,0,0,0,8.49,5.09,126.21,126.21,0,0,0,14.14,3.4,4,4,0,0,0,.6.12,5.61,5.61,0,0,1,.61.13l.88.16c.32.05.61.1.88.16a96.85,96.85,0,0,1,17.66,5.12,27.58,27.58,0,0,1,11.86,9.58q4.77,6.6,4.77,18.06v.16q0,10.66-5.05,18.23a31.46,31.46,0,0,1-14.62,11.54q-9.57,4-23.11,4Z" fill="#151bff"/><path d="M466.57,128.89l-7.54-1.6A60.25,60.25,0,0,1,445,122.48a59,59,0,0,1-12.21-8L442.93,102a46.06,46.06,0,0,0,14.66,8.66A51,51,0,0,0,475,113.51q12.66,0,19.63-4.69a15.07,15.07,0,0,0,7-13.26v-.08q0-6.08-3.17-9.65a18.87,18.87,0,0,0-8.17-5.29,90.52,90.52,0,0,0-12.94-3.16,1.46,1.46,0,0,0-.52-.08,1.72,1.72,0,0,1-.52-.08l-1.2-.24a125.74,125.74,0,0,1-19-4.53,26.75,26.75,0,0,1-12.54-9.21q-5.21-6.69-5.21-19v-.08q0-10.82,4.85-18.47A30.45,30.45,0,0,1,457.27,14q9.3-4,22.35-4a55.67,55.67,0,0,1,12.3,1.36,61.38,61.38,0,0,1,11.94,4.05,68.91,68.91,0,0,1,11.58,6.77l-9.3,13a54.19,54.19,0,0,0-13.26-7.33,37.94,37.94,0,0,0-13.26-2.45q-11.94,0-18.54,4.77t-6.61,13.5v.08c0,4,1.13,7.16,3.4,9.45a20.5,20.5,0,0,0,8.5,5.09,125.66,125.66,0,0,0,14.14,3.4,3.54,3.54,0,0,0,.6.12,6,6,0,0,1,.6.13l.88.16c.32.05.61.1.88.16a97.21,97.21,0,0,1,17.67,5.12A27.61,27.61,0,0,1,513,76.94q4.77,6.6,4.77,18.06v.16q0,10.66-5,18.23a31.46,31.46,0,0,1-14.62,11.54q-9.57,4-23.11,4Z" fill="#151bff"/><circle cx="29.02" cy="216.51" r="28.51" fill="#151bff"/><circle cx="209.11" cy="216.24" r="28.51" fill="#151bff"/><path d="M319.81,571.1v-304H465.92S547,268,547,353.54s-80.22,88.82-80.22,88.82H416.28l.7-34.74H440.2l17.74-.16c18.45-2,47.2-11.62,47.2-52.49,0-60.16-62.32-52.64-62.32-52.64H361.17v268.6Z" fill="#151bff"/><path d="M93.66,266.54,69.38,303.48l-28.76.17v147.2c0,69.7,30.92,99.24,72.46,99.24,46.15,0,75.69-30.47,75.69-99.24V266.7h40.62V448.08c0,95.54-50.31,134.77-117.7,134.77C48,582.85,0,546.39,0,449.93V266.7Z" fill="#151bff"/><path d="M38.28,1.2H54.62V117.69H38.28Zm11,101H75.69q12.9,0,20-6.69t7.09-18.87V42.3q0-12.18-7.09-18.87t-20-6.69H49.33V1.2H75.21q14,0,24,4.89a34.06,34.06,0,0,1,15.14,14.26q5.2,9.38,5.21,22.59V76q0,13.22-5.21,22.59A34,34,0,0,1,99.13,112.8q-10,4.89-24,4.89H49.33Z"/><path d="M146,.93h16.37V117.69H146Zm7.14,51.84h39.8a15.33,15.33,0,0,0,8.27-2.25,14.71,14.71,0,0,0,5.57-6.37,21.79,21.79,0,0,0,2-9.51,21.73,21.73,0,0,0-2-9.51,14.84,14.84,0,0,0-5.53-6.38,15.25,15.25,0,0,0-8.31-2.25h-39.8V.93h39.16A36.63,36.63,0,0,1,210.06,5.1a29.35,29.35,0,0,1,11.87,11.84,36.14,36.14,0,0,1,4.21,17.7,35.81,35.81,0,0,1-4.25,17.69A29.47,29.47,0,0,1,210,64.17a36.39,36.39,0,0,1-17.69,4.17H153.12Zm31.78,12L201.19,61,231,117.69H211.62Z"/><path d="M253.08,1.2h16.35V117.69H253.08Zm7.93,0h66.9V16.74H261Zm0,50.88H319.1V67.62H261Zm0,50.07h66.9v15.54H261Z"/><path d="M377.74,118.89l-7.53-1.6a60.1,60.1,0,0,1-14.06-4.81,59,59,0,0,1-12.21-8L354.11,92a46.06,46.06,0,0,0,14.66,8.66,51,51,0,0,0,17.39,2.88q12.64,0,19.62-4.69a15,15,0,0,0,7-13.26v-.08q0-6.08-3.16-9.65a18.87,18.87,0,0,0-8.17-5.29,90.52,90.52,0,0,0-12.94-3.16,1.46,1.46,0,0,0-.52-.08,1.72,1.72,0,0,1-.52-.08l-1.2-.24a125.74,125.74,0,0,1-19-4.53,26.75,26.75,0,0,1-12.54-9.21q-5.21-6.69-5.21-19v-.08q0-10.82,4.85-18.47A30.4,30.4,0,0,1,368.45,4q9.3-4,22.35-4a55.67,55.67,0,0,1,12.3,1.36A61.38,61.38,0,0,1,415,5.41a68.91,68.91,0,0,1,11.58,6.77l-9.3,13a54.19,54.19,0,0,0-13.26-7.33,37.94,37.94,0,0,0-13.26-2.45q-11.94,0-18.54,4.77t-6.61,13.5v.08c0,4,1.13,7.16,3.4,9.45a20.53,20.53,0,0,0,8.49,5.09,126.21,126.21,0,0,0,14.14,3.4,4,4,0,0,0,.6.12,5.61,5.61,0,0,1,.61.13l.88.16c.32.05.61.1.88.16a96.85,96.85,0,0,1,17.66,5.12,27.58,27.58,0,0,1,11.86,9.58q4.77,6.6,4.77,18.06v.16q0,10.66-5.05,18.23a31.46,31.46,0,0,1-14.62,11.54q-9.57,4-23.11,4Z"/><path d="M475.57,118.89l-7.54-1.6A60.25,60.25,0,0,1,454,112.48a59,59,0,0,1-12.21-8L451.93,92a46.06,46.06,0,0,0,14.66,8.66A51,51,0,0,0,484,103.51q12.66,0,19.63-4.69a15.07,15.07,0,0,0,7-13.26v-.08q0-6.08-3.17-9.65a18.87,18.87,0,0,0-8.17-5.29,90.52,90.52,0,0,0-12.94-3.16,1.46,1.46,0,0,0-.52-.08,1.72,1.72,0,0,1-.52-.08l-1.2-.24a125.74,125.74,0,0,1-19-4.53,26.75,26.75,0,0,1-12.54-9.21q-5.21-6.69-5.21-19v-.08q0-10.82,4.85-18.47A30.45,30.45,0,0,1,466.27,4q9.3-4,22.35-4a55.67,55.67,0,0,1,12.3,1.36,61.38,61.38,0,0,1,11.94,4.05,68.91,68.91,0,0,1,11.58,6.77l-9.3,13a54.19,54.19,0,0,0-13.26-7.33,37.94,37.94,0,0,0-13.26-2.45q-11.94,0-18.54,4.77t-6.61,13.5v.08c0,4,1.13,7.16,3.4,9.45a20.5,20.5,0,0,0,8.5,5.09,125.66,125.66,0,0,0,14.14,3.4,3.54,3.54,0,0,0,.6.12,6,6,0,0,1,.6.13l.88.16c.32.05.61.1.88.16a97.21,97.21,0,0,1,17.67,5.12A27.61,27.61,0,0,1,522,66.94q4.77,6.6,4.77,18.06v.16q0,10.66-5,18.23a31.46,31.46,0,0,1-14.62,11.54q-9.57,4-23.11,4Z"/><circle cx="38.02" cy="206.51" r="28.51"/><circle cx="218.11" cy="206.24" r="28.51"/><path d="M328.81,561.1v-304H474.92S556,258,556,343.54s-80.22,88.82-80.22,88.82H425.28l.7-34.74H449.2l17.74-.16c18.45-2,47.2-11.62,47.2-52.49,0-60.16-62.32-52.64-62.32-52.64H370.17v268.6Z"/><path d="M102.66,256.54,78.38,293.48l-28.76.17v147.2c0,69.7,30.92,99.24,72.46,99.24,46.15,0,75.69-30.47,75.69-99.24V256.7h40.62V438.08c0,95.54-50.31,134.77-117.7,134.77C57,572.85,9,536.39,9,439.93V256.7Z"/></svg>