<svg xmlns="http://www.w3.org/2000/svg" width="556.04" height="582.85"><title>Recurso 5cloth</title><path fill="#151bff" d="M29.28 11.2h16.34v116.5H29.28zm11 101h26.4q12.9 0 20-6.7t7.1-18.86V52.3q0-12.18-7.1-18.87t-20-6.7H40.34V11.2H66.2q14 0 24 4.9a34.06 34.06 0 0 1 15.15 14.25q5.2 9.38 5.2 22.6V86q0 13.22-5.2 22.6a34 34 0 0 1-15.22 14.2q-10 4.9-24 4.9h-25.8zM137 10.93h16.37V127.7H137zm7.14 51.84h39.8a15.33 15.33 0 0 0 8.27-2.25 14.7 14.7 0 0 0 5.58-6.37 21.8 21.8 0 0 0 2-9.5 21.73 21.73 0 0 0-2-9.52 14.84 14.84 0 0 0-5.53-6.38 15.25 15.25 0 0 0-8.3-2.25h-39.8V10.93h39.15a36.63 36.63 0 0 1 17.78 4.17 29.35 29.35 0 0 1 11.87 11.84 36.14 36.14 0 0 1 4.2 17.7 35.8 35.8 0 0 1-4.24 17.7A29.47 29.47 0 0 1 201 74.16a36.4 36.4 0 0 1-17.7 4.17h-39.18zm31.78 12L192.2 71l29.8 56.7h-19.38zM244.08 11.2h16.35v116.5h-16.35zm7.93 0h66.9v15.54H252zm0 50.88h58.1v15.54H252zm0 50.07h66.9v15.54H252zM368.74 128.9l-7.53-1.6a60.1 60.1 0 0 1-14.05-4.82 59 59 0 0 1-12.2-8L345.1 102a46.06 46.06 0 0 0 14.67 8.66 51 51 0 0 0 17.4 2.88q12.63 0 19.6-4.7a15 15 0 0 0 7-13.25v-.1q0-6.07-3.15-9.64a18.87 18.87 0 0 0-8.17-5.3 90.52 90.52 0 0 0-12.94-3.15 1.46 1.46 0 0 0-.5-.07 1.72 1.72 0 0 1-.53-.08l-1.2-.24a125.74 125.74 0 0 1-19-4.52 26.75 26.75 0 0 1-12.54-9.2q-5.2-6.7-5.2-19v-.1q0-10.8 4.84-18.46A30.4 30.4 0 0 1 359.45 14q9.3-4 22.35-4a55.67 55.67 0 0 1 12.3 1.36A61.38 61.38 0 0 1 406 15.4a68.9 68.9 0 0 1 11.58 6.78l-9.3 13a54.2 54.2 0 0 0-13.26-7.33 37.94 37.94 0 0 0-13.26-2.45q-11.94 0-18.54 4.77t-6.6 13.5v.08c0 4 1.12 7.16 3.4 9.45a20.53 20.53 0 0 0 8.48 5.1 126.2 126.2 0 0 0 14.14 3.4 4 4 0 0 0 .6.1 5.6 5.6 0 0 1 .6.14l.9.16c.3.05.6.1.87.16a96.85 96.85 0 0 1 17.67 5.12 27.58 27.58 0 0 1 11.86 9.58q4.77 6.6 4.77 18.06v.16q0 10.66-5.05 18.23a31.46 31.46 0 0 1-14.62 11.55q-9.57 4-23.1 4zM466.57 128.9l-7.54-1.6a60.25 60.25 0 0 1-14.03-4.82 59 59 0 0 1-12.2-8L442.92 102a46.06 46.06 0 0 0 14.66 8.66 51 51 0 0 0 17.4 2.85q12.66 0 19.63-4.68a15.07 15.07 0 0 0 7-13.26v-.08q0-6.08-3.17-9.65a18.87 18.87 0 0 0-8.17-5.3 90.52 90.52 0 0 0-12.95-3.15 1.46 1.46 0 0 0-.52-.08 1.72 1.72 0 0 1-.52-.08l-1.2-.24a125.74 125.74 0 0 1-19-4.53 26.75 26.75 0 0 1-12.53-9.2q-5.2-6.7-5.2-19v-.1q0-10.8 4.84-18.46A30.45 30.45 0 0 1 457.28 14q9.3-4 22.35-4a55.67 55.67 0 0 1 12.3 1.36 61.38 61.38 0 0 1 11.94 4.05 68.9 68.9 0 0 1 11.58 6.78l-9.3 13a54.2 54.2 0 0 0-13.26-7.33 37.94 37.94 0 0 0-13.26-2.45q-11.94 0-18.54 4.77t-6.6 13.5v.08c0 4 1.12 7.16 3.4 9.45a20.5 20.5 0 0 0 8.5 5.1 125.66 125.66 0 0 0 14.13 3.4 3.54 3.54 0 0 0 .6.1 6 6 0 0 1 .6.14l.9.16c.3.05.6.1.87.16a97.2 97.2 0 0 1 17.67 5.12A27.6 27.6 0 0 1 513 76.94q4.77 6.6 4.77 18.06v.16q0 10.66-5 18.23a31.46 31.46 0 0 1-14.62 11.53q-9.57 4-23.1 4z"/><circle cx="29.02" cy="216.51" r="28.51" fill="#151bff"/><circle cx="209.11" cy="216.24" r="28.51" fill="#151bff"/><path fill="#151bff" d="M319.8 571.1v-304h146.12S547 268 547 353.54s-80.22 88.82-80.22 88.82h-50.5l.7-34.74h23.22l17.74-.16c18.45-2 47.2-11.62 47.2-52.5 0-60.15-62.32-52.63-62.32-52.63h-81.65v268.6zM93.66 266.54l-24.28 36.94-28.76.17v147.2c0 69.7 30.92 99.24 72.46 99.24 46.15 0 75.7-30.48 75.7-99.25V266.7h40.6v181.38c0 95.54-50.3 134.77-117.7 134.77C48 582.85 0 546.4 0 449.93V266.7z"/><path d="M38.28 1.2h16.34v116.5H38.28zm11 101h26.4q12.9 0 20-6.7t7.1-18.86V42.3q0-12.18-7.1-18.87t-20-6.7H49.34V1.2H75.2q14 0 24 4.9a34.06 34.06 0 0 1 15.15 14.25q5.2 9.38 5.2 22.6V76q0 13.22-5.2 22.6a34 34 0 0 1-15.22 14.2q-10 4.9-24 4.9h-25.8zM146 .93h16.37V117.7H146zm7.14 51.84h39.8a15.33 15.33 0 0 0 8.27-2.25 14.7 14.7 0 0 0 5.58-6.37 21.8 21.8 0 0 0 2-9.5 21.73 21.73 0 0 0-2-9.52 14.84 14.84 0 0 0-5.53-6.38 15.25 15.25 0 0 0-8.3-2.25h-39.8V.93h39.15a36.63 36.63 0 0 1 17.76 4.17 29.35 29.35 0 0 1 11.87 11.84 36.14 36.14 0 0 1 4.2 17.7 35.8 35.8 0 0 1-4.24 17.7A29.47 29.47 0 0 1 210 64.16a36.4 36.4 0 0 1-17.7 4.17h-39.18zm31.78 12L201.2 61l29.8 56.7h-19.38zM253.08 1.2h16.35v116.5h-16.35zm7.93 0h66.9v15.54H261zm0 50.88h58.1v15.54H261zm0 50.07h66.9v15.54H261zM377.74 118.9l-7.53-1.6a60.1 60.1 0 0 1-14.05-4.82 59 59 0 0 1-12.2-8L354.1 92a46.06 46.06 0 0 0 14.67 8.66 51 51 0 0 0 17.4 2.88q12.63 0 19.6-4.7a15 15 0 0 0 7-13.25v-.1q0-6.07-3.15-9.64a18.87 18.87 0 0 0-8.17-5.3 90.52 90.52 0 0 0-12.94-3.15 1.46 1.46 0 0 0-.5-.07 1.72 1.72 0 0 1-.53-.08l-1.2-.24a125.74 125.74 0 0 1-19-4.52 26.75 26.75 0 0 1-12.54-9.2q-5.2-6.7-5.2-19v-.1q0-10.8 4.84-18.46A30.4 30.4 0 0 1 368.45 4q9.3-4 22.35-4a55.67 55.67 0 0 1 12.3 1.36A61.38 61.38 0 0 1 415 5.4a68.9 68.9 0 0 1 11.58 6.78l-9.3 13a54.2 54.2 0 0 0-13.26-7.33 37.94 37.94 0 0 0-13.26-2.45q-11.94 0-18.54 4.77t-6.6 13.5v.08c0 4 1.12 7.16 3.4 9.45a20.53 20.53 0 0 0 8.48 5.1 126.2 126.2 0 0 0 14.14 3.4 4 4 0 0 0 .6.1 5.6 5.6 0 0 1 .6.14l.9.16c.3.05.6.1.87.16a96.85 96.85 0 0 1 17.67 5.12 27.58 27.58 0 0 1 11.86 9.58q4.77 6.6 4.77 18.06v.16q0 10.66-5.05 18.23a31.46 31.46 0 0 1-14.62 11.55q-9.57 4-23.1 4zM475.57 118.9l-7.54-1.6a60.25 60.25 0 0 1-14.03-4.82 59 59 0 0 1-12.2-8L451.92 92a46.06 46.06 0 0 0 14.66 8.66 51 51 0 0 0 17.4 2.85q12.66 0 19.63-4.68a15.07 15.07 0 0 0 7-13.26v-.08q0-6.08-3.17-9.65a18.87 18.87 0 0 0-8.17-5.3 90.52 90.52 0 0 0-12.95-3.15 1.46 1.46 0 0 0-.52-.08 1.72 1.72 0 0 1-.52-.08l-1.2-.24a125.74 125.74 0 0 1-19-4.53 26.75 26.75 0 0 1-12.53-9.2q-5.2-6.7-5.2-19v-.1q0-10.8 4.84-18.46A30.45 30.45 0 0 1 466.28 4q9.3-4 22.35-4a55.67 55.67 0 0 1 12.3 1.36 61.38 61.38 0 0 1 11.94 4.05 68.9 68.9 0 0 1 11.58 6.78l-9.3 13a54.2 54.2 0 0 0-13.26-7.33 37.94 37.94 0 0 0-13.26-2.45q-11.94 0-18.54 4.77t-6.6 13.5v.08c0 4 1.12 7.16 3.4 9.45a20.5 20.5 0 0 0 8.5 5.1 125.66 125.66 0 0 0 14.13 3.4 3.54 3.54 0 0 0 .6.1 6 6 0 0 1 .6.14l.9.16c.3.05.6.1.87.16a97.2 97.2 0 0 1 17.67 5.12A27.6 27.6 0 0 1 522 66.94q4.77 6.6 4.77 18.06v.16q0 10.66-5 18.23a31.46 31.46 0 0 1-14.62 11.53q-9.57 4-23.1 4z"/><circle cx="38.02" cy="206.51" r="28.51"/><circle cx="218.11" cy="206.24" r="28.51"/><path d="M328.8 561.1v-304h146.12S556 258 556 343.54s-80.22 88.82-80.22 88.82h-50.5l.7-34.74h23.22l17.74-.16c18.45-2 47.2-11.62 47.2-52.5 0-60.15-62.32-52.63-62.32-52.63h-81.65v268.6zM102.66 256.54l-24.28 36.94-28.76.17v147.2c0 69.7 30.92 99.24 72.46 99.24 46.15 0 75.7-30.48 75.7-99.25V256.7h40.6v181.38c0 95.54-50.3 134.77-117.7 134.77C57 572.85 9 536.4 9 439.93V256.7z"/></svg>