<svg xmlns="http://www.w3.org/2000/svg" width="556.54" height="583.35" viewBox="0 0 556.54 583.35"><title>Recurso 7cloth</title><circle cx="29.52" cy="216.51" r="28.51" fill="none" stroke="#000" stroke-miterlimit="10"/><circle cx="209.61" cy="216.24" r="28.51" fill="none" stroke="#000" stroke-miterlimit="10"/><path d="M320.31,571.1v-304H466.42s81.12.9,81.12,86.49-80.22,88.82-80.22,88.82H416.78l.7-34.74H440.7l17.74-.16c18.45-2,47.2-11.62,47.2-52.49,0-60.16-62.32-52.64-62.32-52.64H361.67v268.6Z" fill="none" stroke="#000" stroke-miterlimit="10"/><path d="M94.16,266.54,69.88,303.48l-28.76.17v147.2c0,69.7,30.92,99.24,72.46,99.24,46.15,0,75.69-30.47,75.69-99.24V266.7h40.62V448.08c0,95.54-50.31,134.77-117.7,134.77C48.5,582.85.5,546.39.5,449.93V266.7Z" fill="none" stroke="#000" stroke-miterlimit="10"/><path d="M38.78,1.2H55.12V117.69H38.78Zm11,101H76.19q12.9,0,20-6.69t7.09-18.87V42.3q0-12.18-7.09-18.87t-20-6.69H49.83V1.2H75.71q14,0,24,4.89a34.06,34.06,0,0,1,15.14,14.26Q120,29.73,120,42.94V76q0,13.22-5.21,22.59A34,34,0,0,1,99.63,112.8q-10,4.89-24,4.89H49.83Z"/><path d="M146.48.93h16.37V117.69H146.48Zm7.14,51.84h39.8a15.33,15.33,0,0,0,8.27-2.25,14.71,14.71,0,0,0,5.57-6.37,21.79,21.79,0,0,0,2-9.51,21.73,21.73,0,0,0-2-9.51,14.84,14.84,0,0,0-5.53-6.38,15.25,15.25,0,0,0-8.31-2.25h-39.8V.93h39.16A36.63,36.63,0,0,1,210.56,5.1a29.35,29.35,0,0,1,11.87,11.84,36.14,36.14,0,0,1,4.21,17.7,35.81,35.81,0,0,1-4.25,17.69,29.47,29.47,0,0,1-11.92,11.84,36.39,36.39,0,0,1-17.69,4.17H153.62Zm31.78,12L201.69,61l29.85,56.65H212.12Z"/><path d="M253.58,1.2h16.35V117.69H253.58Zm7.93,0h66.9V16.74h-66.9Zm0,50.88H319.6V67.62H261.51Zm0,50.07h66.9v15.54h-66.9Z"/><path d="M378.24,118.89l-7.53-1.6a60.1,60.1,0,0,1-14.06-4.81,59,59,0,0,1-12.21-8L354.61,92a46.06,46.06,0,0,0,14.66,8.66,51,51,0,0,0,17.39,2.88q12.64,0,19.62-4.69a15,15,0,0,0,7-13.26v-.08q0-6.08-3.16-9.65a18.87,18.87,0,0,0-8.17-5.29A90.52,90.52,0,0,0,389,67.38a1.46,1.46,0,0,0-.52-.08,1.72,1.72,0,0,1-.52-.08l-1.2-.24a125.74,125.74,0,0,1-19-4.53,26.75,26.75,0,0,1-12.54-9.21q-5.21-6.69-5.21-19v-.08q0-10.82,4.85-18.47A30.4,30.4,0,0,1,369,4q9.3-4,22.35-4a55.67,55.67,0,0,1,12.3,1.36,61.38,61.38,0,0,1,11.94,4.05,68.91,68.91,0,0,1,11.58,6.77l-9.3,13a54.19,54.19,0,0,0-13.26-7.33,37.94,37.94,0,0,0-13.26-2.45q-11.94,0-18.54,4.77t-6.61,13.5v.08c0,4,1.13,7.16,3.4,9.45A20.53,20.53,0,0,0,378,48.27a126.21,126.21,0,0,0,14.14,3.4,4,4,0,0,0,.6.12,5.61,5.61,0,0,1,.61.13l.88.16c.32.05.61.1.88.16a96.85,96.85,0,0,1,17.66,5.12,27.58,27.58,0,0,1,11.86,9.58q4.77,6.6,4.77,18.06v.16q0,10.66-5.05,18.23a31.46,31.46,0,0,1-14.62,11.54q-9.57,4-23.11,4Z"/><path d="M476.07,118.89l-7.54-1.6a60.25,60.25,0,0,1-14.06-4.81,59,59,0,0,1-12.21-8L452.43,92a46.06,46.06,0,0,0,14.66,8.66,51,51,0,0,0,17.39,2.88q12.66,0,19.63-4.69a15.07,15.07,0,0,0,7-13.26v-.08q0-6.08-3.17-9.65a18.87,18.87,0,0,0-8.17-5.29,90.52,90.52,0,0,0-12.94-3.16,1.46,1.46,0,0,0-.52-.08,1.72,1.72,0,0,1-.52-.08l-1.2-.24a125.74,125.74,0,0,1-19-4.53A26.75,26.75,0,0,1,453,53.24q-5.21-6.69-5.21-19v-.08q0-10.82,4.85-18.47A30.45,30.45,0,0,1,466.77,4q9.3-4,22.35-4a55.67,55.67,0,0,1,12.3,1.36,61.38,61.38,0,0,1,11.94,4.05,68.91,68.91,0,0,1,11.58,6.77l-9.3,13a54.19,54.19,0,0,0-13.26-7.33,37.94,37.94,0,0,0-13.26-2.45q-11.94,0-18.54,4.77T464,33.65v.08c0,4,1.13,7.16,3.4,9.45a20.5,20.5,0,0,0,8.5,5.09A125.66,125.66,0,0,0,490,51.67a3.54,3.54,0,0,0,.6.12,6,6,0,0,1,.6.13l.88.16c.32.05.61.1.88.16a97.21,97.21,0,0,1,17.67,5.12,27.61,27.61,0,0,1,11.85,9.58q4.77,6.6,4.77,18.06v.16q0,10.66-5,18.23a31.46,31.46,0,0,1-14.62,11.54q-9.57,4-23.11,4Z"/><circle cx="38.52" cy="206.51" r="28.51"/><circle cx="218.61" cy="206.24" r="28.51"/><path d="M329.31,561.1v-304H475.42s81.12.9,81.12,86.49-80.22,88.82-80.22,88.82H425.78l.7-34.74H449.7l17.74-.16c18.45-2,47.2-11.62,47.2-52.49,0-60.16-62.32-52.64-62.32-52.64H370.67v268.6Z"/><path d="M103.16,256.54,78.88,293.48l-28.76.17v147.2c0,69.7,30.92,99.24,72.46,99.24,46.15,0,75.69-30.47,75.69-99.24V256.7h40.62V438.08c0,95.54-50.31,134.77-117.7,134.77C57.5,572.85,9.5,536.39,9.5,439.93V256.7Z"/><path d="M369.84,124.89l-7.68-1.63a60,60,0,0,1-26.79-13.07l10.38-12.74a46.84,46.84,0,0,0,14.94,8.82,52,52,0,0,0,17.72,2.94q12.91,0,20-4.78a15.34,15.34,0,0,0,7.11-13.51v-.08q0-6.21-3.23-9.85A19.38,19.38,0,0,0,394,75.6a92.7,92.7,0,0,0-13.19-3.22,1.51,1.51,0,0,0-.53-.08,1.78,1.78,0,0,1-.53-.08L378.5,72a127.79,127.79,0,0,1-19.4-4.61A27.35,27.35,0,0,1,346.32,58Q341,51.15,341,38.57v-.08q0-11,4.94-18.83A31,31,0,0,1,360.36,7.78q9.48-4.08,22.79-4.09a57.24,57.24,0,0,1,12.54,1.39,62.41,62.41,0,0,1,12.17,4.13,69.78,69.78,0,0,1,11.8,6.9l-9.48,13.23a55.42,55.42,0,0,0-13.51-7.47,38.77,38.77,0,0,0-13.52-2.5q-12.16,0-18.91,4.86T357.51,38v.08q0,6.12,3.47,9.63a21,21,0,0,0,8.65,5.19,130.69,130.69,0,0,0,14.42,3.47,3.85,3.85,0,0,0,.61.12,5.15,5.15,0,0,1,.61.13l.9.16.9.16a98.9,98.9,0,0,1,18,5.23,28.08,28.08,0,0,1,12.09,9.76Q422,78.66,422,90.35v.16q0,10.86-5.15,18.58A32.14,32.14,0,0,1,402,120.85q-9.76,4-23.57,4Z" fill="none" stroke="#000" stroke-miterlimit="10"/><path d="M469.56,124.89l-7.68-1.63a60,60,0,0,1-26.79-13.07l10.37-12.74a47,47,0,0,0,15,8.82,51.92,51.92,0,0,0,17.72,2.94q12.9,0,20-4.78a15.34,15.34,0,0,0,7.11-13.51v-.08q0-6.21-3.23-9.85a19.38,19.38,0,0,0-8.33-5.39,92.7,92.7,0,0,0-13.19-3.22,1.51,1.51,0,0,0-.53-.08,1.78,1.78,0,0,1-.53-.08L478.21,72a127.62,127.62,0,0,1-19.39-4.61A27.3,27.3,0,0,1,446,58q-5.31-6.81-5.31-19.39v-.08q0-11,4.94-18.83A31,31,0,0,1,460.08,7.78q9.48-4.08,22.79-4.09a57.31,57.31,0,0,1,12.54,1.39,62.1,62.1,0,0,1,12.16,4.13,69.47,69.47,0,0,1,11.81,6.9L509.9,29.34a55.42,55.42,0,0,0-13.51-7.47,38.82,38.82,0,0,0-13.52-2.5q-12.17,0-18.91,4.86T457.22,38v.08q0,6.12,3.48,9.63a20.9,20.9,0,0,0,8.65,5.19,130.12,130.12,0,0,0,14.42,3.47,3.64,3.64,0,0,0,.61.12,5.61,5.61,0,0,1,.61.13l.9.16.9.16a98.9,98.9,0,0,1,18,5.23,28,28,0,0,1,12.08,9.76q4.86,6.73,4.86,18.42v.16q0,10.86-5.14,18.58a32.12,32.12,0,0,1-14.91,11.76q-9.75,4-23.56,4Z" fill="none" stroke="#000" stroke-miterlimit="10"/><path d="M29.24,121.21H77.16s25.48-3.06,33.64-22.43,2-75.43,2-75.43L75.12,4H30.26Z" fill="none" stroke="#000"/><path d="M50.65,99.8H71s21.41,2,21.41-22.43V42.72S90.41,24.37,68,24.37H48.61Z" fill="none" stroke="#000"/><path d="M136.28,121.21h22.43V74.32H173l26.5,46.89H226L201.52,72.28S225,61.06,224,38.64,214.77,4,196.43,4H136.28Z" fill="none" stroke="#000"/><path d="M159.73,55h26.5s12.23-5.1,12.23-16.31-5.09-14.27-16.31-14.27H159.73Z" fill="none" stroke="#000"/><polygon points="242.34 121.21 322.87 121.21 323.24 108.36 266.8 106.36 266.8 73.3 313.69 73.3 313.69 53.93 264.76 53.93 264.76 24.37 321.85 24.37 321.85 3.98 243.36 3.98 242.34 121.21" fill="none" stroke="#000"/></svg>