<svg xmlns="http://www.w3.org/2000/svg" viewBox="0 0 390.2 212"><defs><style>.cls-1{fill:#fff;}.cls-2{isolation:isolate;}</style></defs><title>Recurso 2ldpi</title><g id="Capa_2"><g id="UPlogoSVG"><path id="cube" d="M0 0h212v212H0z"/><path id="P" d="M14.1 63.2h14.3v74.6a19.44 19.44 0 0 0 5.6 14.3c4.6 4.6 11.2 6.8 19.9 6.8s15.3-2.3 19.9-6.8a19.44 19.44 0 0 0 5.6-14.3V63.2h14.3v75.2c0 9.1-2.9 16.6-8.7 22.4-6.6 6.6-17 9.9-31.1 9.9s-24.4-3.3-31.1-9.9c-5.8-5.8-8.7-13.2-8.7-22.4zm18-8.1V41.4h14.3v13.7zm29.8 0V41.4h14.3v13.7z" class="cls-1"/><path id="U" d="M117.2 63.2h49.7c9.1 0 16.6 2.9 22.4 8.7s8.7 13.9 8.7 24.2-2.7 18.2-8.1 23.6-13 8.1-23 8.1h-35.4v41.6h-14.3zM131.5 75v41h32.3c5.8 0 10.3-1.7 13.7-5 3.7-3.7 5.6-8.7 5.6-14.9 0-7-1.7-12.2-5-15.5a19.44 19.44 0 0 0-14.3-5.6z" class="cls-1"/><path d="M218.5 199.5h8.4v8.1h-8.4zm23.8-27.9a18.4 18.4 0 0 1 13.6-5.5c5.9 0 10.3 1.5 13.2 4.4a16.6 16.6 0 0 1 4.8 9.9h-8.1a9 9 0 0 0-2.9-5.5c-1.5-1.5-3.7-2.2-6.6-2.2a10 10 0 0 0-7.3 2.9c-2.9 2.9-4.4 7-4.4 12.1 0 4.9 1.3 8.7 4 11.4a9.8 9.8 0 0 0 7.3 2.9 11.3 11.3 0 0 0 8.1-2.9 10.25 10.25 0 0 0 2.9-7.7h8.1a18.47 18.47 0 0 1-5.1 12.5c-3.2 3.2-7.8 4.8-14 4.8a17.8 17.8 0 0 1-12.9-5.1 22 22 0 0 1-6.6-16.2c0-6.6 2-11.9 5.9-15.8zm47-.4a19.56 19.56 0 0 1 27.2 0c4.2 4.2 6.2 9.4 6.2 15.8a21.64 21.64 0 0 1-6.2 15.8 19.56 19.56 0 0 1-27.2 0c-4.2-4.2-6.2-9.4-6.2-15.8a21.8 21.8 0 0 1 6.2-15.8zm6.3 4.1c-2.9 2.9-4.4 6.9-4.4 11.8s1.3 8.7 4 11.4a10.63 10.63 0 0 0 15.4 0c2.7-2.7 4-6.5 4-11.4a16.24 16.24 0 0 0-4.4-11.8 9.8 9.8 0 0 0-7.3-2.9 9.65 9.65 0 0 0-7.3 2.9zm44 32.3h-7.3v-41.1h7.3v6.2c3.2-4.6 6.9-7 11-7 4.6 0 8.2 1.2 10.6 3.7a15.67 15.67 0 0 1 2.9 4c3.2-5.1 7.6-7.7 13.2-7.7 3.9 0 7 1.1 9.2 3.3 2.4 2.5 3.7 5.1 3.7 8.1v30.5h-7.3v-29a5 5 0 0 0-1.5-3.7 7 7 0 0 0-5.1-2.2 11.38 11.38 0 0 0-8.4 3.3c-2 2-2.9 3.8-2.9 5.5v26.1h-7.3V179a6.2 6.2 0 0 0-2.2-4.4 7.6 7.6 0 0 0-5.5-1.8 9.84 9.84 0 0 0-7 2.9c-2.2 2.2-3.3 4.3-3.3 6.2v25.7z" class="cls-2"/></g></g></svg>