<svg xmlns="http://www.w3.org/2000/svg" viewBox="0 0 395.78 221.51"><defs><style>.cls-1,.cls-2{fill:#fff;}.cls-2{font-size:94px;font-family:MS-UIGothic, MS UI Gothic;}</style></defs><title>LogoV1-white</title><path id="Black" d="M0 0h212v212H0z"/><path id="P" d="M14.05 63.14h14.3v74.55a19.34 19.34 0 0 0 5.58 14.28q6.83 6.84 19.88 6.83T73.7 152a19.34 19.34 0 0 0 5.58-14.3V63.15h14.3v75.17q0 13.67-8.7 22.37-9.96 9.9-31.07 9.9t-31.05-9.93q-8.72-8.68-8.7-22.36zm18-8.08V41.4h14.3v13.66zm29.82 0V41.4h14.3v13.66z" class="cls-1"/><path id="U" d="M117.18 63.14h49.7q13.67 0 22.37 8.7t8.7 24.22q0 15.54-8.08 23.6t-23 8.1h-35.4v41.6h-14.3zm14.3 11.8v41h32.3q8.7 0 13.66-5 5.6-5.6 5.6-14.9 0-10.55-5-15.54a19.33 19.33 0 0 0-14.3-5.6z" class="cls-1"/><text class="cls-2" transform="translate(212.92 208.66)">.com</text></svg>