<svg xmlns="http://www.w3.org/2000/svg" viewBox="0 0 212 212"><defs><style>.cls-1{fill:#fff;}</style></defs><title>Recurso 1ldpi</title><g id="Capa_2"><g id="Capa_1-2"><path d="M0 0h212v212H0z"/><path d="M14.05 63.13h14.3v74.55A19.35 19.35 0 0 0 33.92 152q6.84 6.84 19.88 6.84T73.7 152a19.32 19.32 0 0 0 5.6-14.3V63.14h14.27v75.18q0 13.67-8.7 22.37-9.93 9.94-31.06 9.93t-31.04-9.93q-8.7-8.68-8.7-22.36zm18-8.07V41.4h14.3v13.66zm29.82 0V41.4h14.3v13.66zm55.3 8.07h49.7q13.68 0 22.38 8.7T198 96.06q0 15.54-8.08 23.6t-23 8.08h-35.45v41.63h-14.3zm14.3 11.8v41h32.3q8.7 0 13.67-5 5.6-5.58 5.6-14.9 0-10.56-5-15.53a19.36 19.36 0 0 0-14.3-5.6z" class="cls-1"/></g></g></svg>