<?xml version="1.0" encoding="utf-8"?>
<!-- Generator: Adobe Illustrator 23.0.1, SVG Export Plug-In . SVG Version: 6.00 Build 0)  -->
<svg version="1.1" id="Logo" xmlns="http://www.w3.org/2000/svg" xmlns:xlink="http://www.w3.org/1999/xlink" x="0px" y="0px"
	 viewBox="0 0 500 500" style="enable-background:new 0 0 500 500;" xml:space="preserve">
<style type="text/css">
	.st0{fill:#FFFFFF;}
</style>
<rect id="Black" x="48.5" y="119.4" width="212" height="212"/>
<path id="P" class="st0" d="M62.6,182.6h14.3v74.6c0,5.8,1.9,10.6,5.6,14.3c4.6,4.6,11.2,6.8,19.9,6.8s15.3-2.3,19.9-6.8
	c3.7-3.7,5.6-8.5,5.6-14.3v-74.6h14.3v75.2c0,9.1-2.9,16.6-8.7,22.4c-6.6,6.6-17,9.9-31.1,9.9c-14.1,0-24.4-3.3-31.1-9.9
	c-5.8-5.8-8.7-13.2-8.7-22.4V182.6z M80.6,174.5v-13.7h14.3v13.7H80.6z M110.4,174.5v-13.7h14.3v13.7H110.4z"/>
<path id="U" class="st0" d="M165.7,182.6h49.7c9.1,0,16.6,2.9,22.4,8.7c5.8,5.8,8.7,13.9,8.7,24.2c0,10.4-2.7,18.2-8.1,23.6
	c-5.4,5.4-13,8.1-23,8.1H180v41.6h-14.3V182.6z M180,194.4v41h32.3c5.8,0,10.3-1.7,13.7-5c3.7-3.7,5.6-8.7,5.6-14.9
	c0-7-1.7-12.2-5-15.5c-3.7-3.7-8.5-5.6-14.3-5.6H180z"/>
<g>
	<path d="M267,318.9h8.4v8.1H267V318.9z"/>
	<path d="M290.8,291c3.7-3.7,8.2-5.5,13.6-5.5c5.9,0,10.3,1.5,13.2,4.4c2.7,2.7,4.3,6,4.8,9.9h-8.1c-0.2-2-1.2-3.8-2.9-5.5
		c-1.5-1.5-3.7-2.2-6.6-2.2s-5.4,1-7.3,2.9c-2.9,2.9-4.4,7-4.4,12.1c0,4.9,1.3,8.7,4,11.4c2,2,4.4,2.9,7.3,2.9c3.4,0,6.1-1,8.1-2.9
		c2-2,2.9-4.5,2.9-7.7h8.1c-0.2,5.1-2,9.3-5.1,12.5c-3.2,3.2-7.8,4.8-14,4.8c-5.1,0-9.4-1.7-12.9-5.1c-4.4-4.4-6.6-9.8-6.6-16.2
		C284.9,300.2,286.9,294.9,290.8,291z"/>
	<path d="M337.8,290.6c3.7-3.7,8.2-5.5,13.6-5.5c5.4,0,9.9,1.8,13.6,5.5c4.2,4.2,6.2,9.4,6.2,15.8c0,6.4-2.1,11.6-6.2,15.8
		c-3.7,3.7-8.2,5.5-13.6,5.5c-5.4,0-9.9-1.8-13.6-5.5c-4.2-4.2-6.2-9.4-6.2-15.8C331.6,300.1,333.7,294.8,337.8,290.6z M344.1,294.7
		c-2.9,2.9-4.4,6.9-4.4,11.8c0,4.9,1.3,8.7,4,11.4c2.2,2.2,4.8,3.3,7.7,3.3s5.5-1.1,7.7-3.3c2.7-2.7,4-6.5,4-11.4
		c0-4.9-1.5-8.8-4.4-11.8c-2-2-4.4-2.9-7.3-2.9S346,292.7,344.1,294.7z"/>
	<path d="M388.1,327h-7.3v-41.1h7.3v6.2c3.2-4.6,6.9-7,11-7c4.6,0,8.2,1.2,10.6,3.7c1.2,1.2,2.2,2.6,2.9,4c3.2-5.1,7.6-7.7,13.2-7.7
		c3.9,0,7,1.1,9.2,3.3c2.4,2.5,3.7,5.1,3.7,8.1V327h-7.3v-29c0-1.5-0.5-2.7-1.5-3.7c-1.5-1.5-3.2-2.2-5.1-2.2
		c-3.4,0-6.2,1.1-8.4,3.3c-2,2-2.9,3.8-2.9,5.5V327h-7.3v-28.6c0-1.5-0.7-2.9-2.2-4.4c-1.2-1.2-3.1-1.8-5.5-1.8c-2.7,0-5,1-7,2.9
		c-2.2,2.2-3.3,4.3-3.3,6.2V327z"/>
</g>
</svg>
