<svg xmlns="http://www.w3.org/2000/svg" viewBox="0 0 212 212"><defs><style>.cls-1{fill:#fff;}</style></defs><title>Recurso 1ldpi</title><g id="Capa_2" data-name="Capa 2"><g id="Capa_1-2" data-name="Capa 1"><rect width="212" height="212"/><path class="cls-1" d="M14.05,63.13H28.34v74.55A19.35,19.35,0,0,0,33.93,152q6.84,6.84,19.88,6.84T73.69,152a19.32,19.32,0,0,0,5.6-14.29V63.13H93.57v75.18q0,13.66-8.69,22.36-9.94,9.95-31.07,9.94t-31.06-9.94q-8.7-8.68-8.7-22.36Zm18-8.07V41.39H46.36V55.06Zm29.82,0V41.39H76.18V55.06Z"/><path class="cls-1" d="M117.18,63.13h49.7q13.67,0,22.37,8.7T198,96.06q0,15.54-8.08,23.61t-23,8.07H131.47v41.63H117.18Zm14.29,11.81v41h32.31q8.68,0,13.66-5,5.59-5.59,5.6-14.91,0-10.56-5-15.53a19.36,19.36,0,0,0-14.29-5.59Z"/></g></g></svg>