<svg xmlns="http://www.w3.org/2000/svg" viewBox="0 0 212 212"><defs><style>.cls-1{fill:#fff;}</style></defs><g id="Capa_2" data-name="Capa 2"><g id="UPlogoSVG"><rect id="cube" width="212" height="212"/><path id="P" class="cls-1" d="M14.1,63.2H28.4v74.6A19.44,19.44,0,0,0,34,152.1c4.6,4.6,11.2,6.8,19.9,6.8s15.3-2.3,19.9-6.8a19.44,19.44,0,0,0,5.6-14.3V63.2H93.7v75.2c0,9.1-2.9,16.6-8.7,22.4-6.6,6.6-17,9.9-31.1,9.9s-24.4-3.3-31.1-9.9c-5.8-5.8-8.7-13.2-8.7-22.4Zm18-8.1V41.4H46.4V55.1Zm29.8,0V41.4H76.2V55.1Z"/><path id="U" class="cls-1" d="M117.2,63.2h49.7c9.1,0,16.6,2.9,22.4,8.7S198,85.8,198,96.1s-2.7,18.2-8.1,23.6-13,8.1-23,8.1H131.5v41.6H117.2ZM131.5,75v41h32.3c5.8,0,10.3-1.7,13.7-5,3.7-3.7,5.6-8.7,5.6-14.9,0-7-1.7-12.2-5-15.5A19.44,19.44,0,0,0,163.8,75Z"/></g></g></svg>
